<?xml version="1.0" standalone="no"?>
<!DOCTYPE svg PUBLIC "-//W3C//DTD SVG 20010904//EN"
 "http://www.w3.org/TR/2001/REC-SVG-20010904/DTD/svg10.dtd">
<svg version="1.0" xmlns="http://www.w3.org/2000/svg"
 width="787.000000pt" height="787.000000pt" viewBox="0 0 787.000000 787.000000"
 preserveAspectRatio="xMidYMid meet">
<metadata>
Created by potrace 1.14, written by Peter Selinger 2001-2017
</metadata>
<g transform="translate(0.000000,787.000000) scale(0.100000,-0.100000)"
fill="#000000" stroke="none">
<path d="M4076 7691 c-3 -4 -16 -7 -28 -7 -13 1 -32 -2 -43 -8 -11 -6 -23 -10
-26 -9 -3 1 -6 -5 -7 -13 -1 -7 -3 -20 -4 -28 -1 -7 -9 -11 -19 -9 -9 3 -26
-4 -37 -15 -11 -11 -23 -18 -25 -16 -3 3 -8 0 -13 -7 -5 -8 -3 -10 6 -4 8 5
11 3 8 -5 -4 -13 -16 -22 -48 -35 -29 -11 -95 -55 -84 -55 6 0 11 -7 11 -15 0
-12 -3 -12 -16 -2 -8 6 -12 7 -8 1 3 -6 -3 -18 -13 -27 -14 -11 -20 -12 -24
-4 -4 7 -4 2 -2 -11 4 -19 2 -21 -9 -12 -10 9 -16 7 -24 -8 -6 -11 -7 -23 -3
-27 4 -4 -4 -2 -17 5 -15 8 -21 8 -17 1 4 -6 -4 -15 -18 -21 -14 -5 -26 -12
-26 -15 0 -4 4 -4 9 0 5 3 13 0 17 -7 4 -7 4 -10 -1 -6 -4 4 -15 2 -23 -5 -13
-9 -14 -9 -8 1 4 7 2 12 -4 12 -6 0 -8 5 -4 12 4 6 3 8 -3 5 -5 -3 -9 -20 -8
-36 1 -17 -2 -28 -7 -25 -5 4 -7 12 -4 20 4 11 2 12 -14 4 -10 -5 -22 -16 -26
-23 -5 -8 -2 -7 9 2 9 7 17 9 17 3 0 -15 -32 -24 -40 -12 -5 8 -9 6 -14 -5 -9
-25 -7 -32 5 -15 9 13 10 13 6 0 -2 -8 -12 -14 -22 -12 -12 2 -15 -1 -10 -10
6 -10 5 -11 -6 0 -7 6 -18 12 -23 12 -6 0 -5 -4 3 -9 17 -11 4 -34 -15 -27 -8
3 -14 -1 -14 -9 0 -8 -5 -15 -11 -15 -5 0 -8 4 -5 8 3 5 -2 9 -10 9 -8 0 -13
-6 -10 -13 3 -7 -4 -16 -15 -19 -11 -4 -16 -11 -13 -18 5 -8 2 -8 -7 1 -7 6
-18 12 -23 12 -6 0 -4 -5 4 -10 13 -8 13 -11 1 -22 -8 -7 -11 -8 -8 -2 4 7 0
14 -8 17 -9 4 -12 1 -8 -9 4 -10 -2 -14 -20 -14 -14 0 -29 -5 -32 -10 -5 -8
-12 -7 -23 2 -14 10 -15 10 -4 -2 19 -22 14 -32 -10 -24 -21 6 -22 5 -8 -11
14 -17 13 -17 -6 -7 -22 12 -44 0 -44 -22 0 -6 4 -5 9 2 7 11 9 11 14 -1 6
-16 -9 -17 -32 -3 -10 7 -12 6 -6 -4 6 -10 3 -12 -14 -7 -18 4 -20 3 -11 -8 8
-10 8 -15 -1 -21 -7 -4 -9 -3 -6 3 7 11 -22 28 -31 18 -3 -3 -1 -5 4 -5 5 0
10 -10 11 -21 2 -21 1 -21 -13 -3 -9 11 -13 14 -10 7 4 -6 2 -14 -4 -18 -5 -3
-10 -2 -10 2 0 5 -8 9 -19 9 -11 0 -17 -5 -14 -13 3 -7 9 -11 13 -8 5 3 11 2
14 -3 8 -13 -28 -11 -36 2 -5 7 -11 7 -20 -3 -9 -10 -10 -12 -1 -7 9 5 11 2 6
-10 -4 -11 -8 -13 -11 -6 -2 7 -11 12 -19 12 -13 0 -13 -2 -2 -17 8 -9 9 -14
3 -10 -15 9 -66 -17 -56 -29 4 -5 -4 0 -18 11 -24 19 -24 19 -10 1 14 -18 13
-19 -2 -14 -9 4 -24 0 -35 -8 -13 -10 -14 -14 -3 -12 8 2 19 8 23 13 5 6 7 4
4 -5 -3 -10 -14 -14 -37 -12 -28 2 -31 0 -20 -13 17 -20 6 -19 -15 1 -13 14
-19 14 -28 4 -7 -7 -7 -10 -1 -7 6 3 11 0 11 -7 0 -8 -9 -11 -24 -8 -13 2 -23
-1 -23 -7 0 -7 -8 -8 -26 -1 -15 6 -23 6 -19 1 5 -9 -32 -27 -48 -23 -5 1 -6
-2 -2 -8 8 -13 -8 -13 -21 0 -7 7 -11 6 -11 -4 0 -8 4 -13 8 -10 4 2 10 0 13
-5 4 -5 -2 -8 -11 -6 -10 2 -18 4 -18 5 0 1 -8 3 -18 5 -9 2 -15 -1 -11 -6 3
-5 -2 -9 -11 -9 -9 0 -13 -4 -10 -10 3 -5 1 -10 -4 -10 -6 0 -11 5 -11 10 0 6
-5 10 -11 10 -6 0 -9 -8 -7 -17 4 -13 -2 -18 -19 -19 -13 -1 -32 -8 -41 -16
-9 -8 -24 -14 -32 -13 -8 0 -18 -4 -22 -10 -5 -6 -8 -2 -8 9 0 20 0 20 -16 0
-8 -10 -12 -13 -8 -5 5 10 3 13 -8 8 -9 -3 -21 0 -29 6 -7 7 -4 -1 6 -18 13
-21 14 -26 3 -18 -8 7 -19 9 -23 5 -5 -4 -5 -1 -1 6 4 6 2 12 -3 12 -19 0 -26
-5 -23 -17 1 -6 -3 -15 -9 -19 -7 -4 -9 -3 -5 4 3 6 2 13 -4 17 -5 3 -10 -1
-10 -9 0 -9 -5 -16 -11 -16 -5 0 -8 4 -5 8 3 5 -1 9 -9 9 -8 0 -12 -5 -8 -10
3 -5 -4 -6 -18 -2 -23 7 -23 7 -4 -8 19 -14 18 -15 -8 -10 -15 3 -24 10 -21
15 4 6 -3 5 -14 -1 -14 -7 -23 -8 -27 -1 -4 6 -13 7 -23 1 -20 -10 -57 10 -44
25 4 4 -1 2 -11 -5 -9 -8 -20 -11 -24 -7 -3 3 -2 6 4 6 6 0 14 8 18 18 5 14 4
15 -6 5 -17 -17 -32 -16 -26 1 4 10 0 12 -14 9 -10 -3 -25 0 -33 6 -11 9 -16
9 -22 0 -5 -8 -3 -9 6 -4 8 5 11 4 6 -3 -13 -22 -42 2 -37 31 1 5 -3 6 -8 3
-5 -4 -13 -2 -16 4 -5 8 -11 7 -21 -1 -16 -13 -19 1 -4 19 7 8 7 9 -1 3 -6 -5
-20 -6 -31 -3 -15 3 -16 7 -6 13 9 6 6 8 -9 6 -12 0 -20 -4 -18 -7 2 -3 -7 -6
-20 -6 -13 0 -23 2 -23 6 2 18 -4 23 -12 10 -8 -12 -10 -9 -10 13 0 16 -4 26
-10 22 -5 -3 -6 -13 -3 -23 6 -15 5 -15 -8 -2 -9 9 -18 22 -22 30 -3 9 -6 10
-6 3 -1 -9 -7 -8 -20 4 -11 9 -18 20 -15 24 2 4 -4 6 -13 4 -10 -1 -22 0 -28
4 -17 10 -35 10 -35 -1 0 -6 7 -8 15 -5 8 4 16 3 19 -1 3 -4 -4 -9 -15 -9 -12
-1 -24 7 -29 20 -8 19 -9 19 -9 3 -1 -14 -4 -16 -14 -7 -8 6 -18 7 -22 3 -5
-4 -5 -1 -1 6 4 7 12 9 18 6 7 -4 8 -2 4 5 -5 7 -16 9 -28 5 -16 -5 -20 -3
-15 9 5 13 2 15 -17 7 -16 -6 -23 -5 -23 5 0 7 5 12 11 11 6 -2 8 -1 3 1 -4 3
-4 10 0 16 3 7 -4 3 -16 -8 -12 -11 -22 -15 -21 -10 7 33 -14 43 -47 22 -12
-8 -17 -2 -14 16 0 4 -10 7 -24 7 -14 0 -25 5 -25 10 0 6 -8 10 -17 10 -16 0
-16 -2 -3 -10 11 -8 7 -9 -14 -4 -23 6 -27 4 -21 -7 7 -11 5 -11 -10 1 -17 14
-18 13 -13 -7 4 -16 2 -20 -8 -16 -8 3 -11 10 -7 16 3 6 1 7 -6 3 -9 -6 -9
-11 0 -22 9 -11 8 -14 -5 -14 -9 0 -16 -5 -16 -11 0 -5 4 -8 8 -5 4 2 8 -4 8
-14 0 -15 -3 -16 -14 -8 -7 6 -12 7 -11 2 4 -22 -2 -35 -13 -28 -10 6 -10 4 0
-7 17 -18 15 -34 -2 -20 -11 9 -14 8 -12 -6 0 -10 -5 -17 -12 -15 -8 1 -11 -2
-7 -9 4 -6 -2 -17 -14 -25 -12 -8 -21 -21 -21 -27 0 -7 5 -4 11 6 5 9 15 17
21 17 7 0 7 -4 -1 -14 -6 -7 -12 -25 -13 -39 -1 -14 -6 -23 -10 -21 -5 3 -5
10 -2 16 4 7 2 8 -4 4 -9 -5 -9 -13 -2 -26 7 -13 7 -21 -2 -26 -6 -4 -8 -3 -4
4 3 6 1 14 -6 18 -7 4 -10 4 -6 -1 4 -4 2 -15 -5 -23 -8 -11 -8 -14 0 -9 6 4
14 3 18 -3 3 -5 0 -10 -8 -10 -18 0 -40 -47 -26 -56 6 -4 6 -11 -2 -20 -6 -7
-15 -11 -20 -8 -5 3 -6 -2 -3 -10 3 -9 11 -13 17 -9 6 3 7 1 3 -5 -4 -7 -14
-12 -22 -12 -12 0 -12 -2 -2 -14 7 -8 18 -11 23 -8 6 3 4 -2 -3 -11 -8 -9 -11
-21 -7 -28 5 -8 1 -8 -15 1 -12 7 -20 7 -16 2 3 -6 3 -12 -1 -15 -5 -2 -3 -3
3 -1 6 1 9 -8 8 -19 -1 -12 -3 -26 -3 -30 -1 -5 -6 -5 -11 -2 -6 3 -10 1 -10
-4 0 -6 5 -11 10 -11 6 0 10 -5 10 -11 0 -6 -6 -9 -12 -6 -9 3 -13 -7 -13 -34
-1 -24 3 -35 10 -31 5 3 4 -1 -2 -10 -7 -8 -9 -19 -5 -23 4 -5 -1 -5 -11 -2
-11 4 -16 3 -12 -3 3 -6 -2 -10 -12 -10 -10 0 -14 -3 -8 -8 6 -4 10 -14 10
-22 -1 -8 3 -24 8 -35 10 -18 9 -19 -8 -5 -17 14 -17 13 -7 -5 6 -13 7 -27 1
-37 -6 -11 -5 -19 2 -24 8 -5 9 -3 4 6 -6 9 -4 11 5 5 10 -6 9 -11 -4 -21 -11
-8 -13 -14 -7 -19 6 -3 11 -11 11 -16 0 -6 -3 -8 -7 -6 -5 3 -8 -12 -8 -33 0
-30 3 -36 13 -28 9 8 11 7 6 -6 -3 -9 -11 -16 -17 -16 -5 0 -3 -8 5 -17 16
-18 14 -48 -2 -38 -5 3 -7 -4 -5 -16 3 -13 10 -26 17 -31 9 -5 7 -8 -7 -9 -17
-1 -16 -2 5 -9 20 -7 21 -8 5 -9 -18 -1 -18 -2 3 -17 12 -8 22 -21 22 -27 0
-8 -3 -8 -9 2 -5 8 -11 9 -15 3 -3 -5 3 -17 13 -27 12 -10 18 -26 15 -38 -2
-12 2 -25 9 -29 9 -6 9 -8 -2 -8 -11 0 -11 -3 0 -17 8 -9 9 -14 3 -10 -7 4
-14 0 -18 -8 -3 -8 -2 -14 2 -14 28 4 34 -2 16 -16 -16 -12 -17 -16 -5 -24 13
-8 13 -12 1 -28 -13 -16 -12 -16 8 1 23 20 31 9 10 -12 -9 -9 -9 -15 1 -24 10
-11 11 -9 6 7 -5 15 -4 17 3 6 12 -16 5 -41 -11 -41 -6 0 -7 -3 -4 -6 4 -4 13
-1 22 6 18 15 20 -1 3 -18 -9 -9 -9 -12 -1 -12 7 0 15 -9 18 -20 3 -11 13 -20
21 -20 8 0 13 -4 9 -9 -3 -5 -1 -12 4 -15 5 -4 8 -18 5 -31 -4 -20 0 -25 18
-26 22 -1 22 -1 -2 -9 -17 -5 -19 -8 -7 -9 9 -1 17 -6 17 -12 0 -5 -6 -7 -12
-3 -10 6 -10 5 -1 -8 7 -8 10 -18 6 -22 -4 -4 0 -4 10 0 9 3 15 10 12 14 -3 5
-1 11 3 14 5 3 8 -10 7 -30 -1 -21 3 -33 9 -31 6 3 12 -6 12 -19 1 -16 -2 -21
-10 -17 -6 4 -5 -1 3 -10 7 -9 17 -14 22 -11 5 3 9 -1 9 -8 0 -8 9 -20 20 -28
15 -11 17 -17 7 -29 -10 -12 -9 -13 11 -2 12 6 22 8 21 4 -4 -22 2 -43 12 -43
5 0 7 5 3 12 -4 7 -3 8 4 4 7 -4 12 -14 12 -21 0 -8 10 -20 23 -26 19 -10 21
-10 12 2 -5 8 -3 7 6 -3 9 -9 19 -14 23 -11 3 4 6 -1 6 -11 0 -9 -4 -15 -9
-11 -5 3 -12 1 -16 -4 -3 -6 5 -8 19 -5 13 2 31 -2 39 -10 12 -12 22 -14 56
-7 2 1 -1 7 -6 14 -11 14 -11 27 0 44 6 9 3 11 -7 7 -9 -3 -17 -10 -17 -15 -1
-5 -2 -15 -3 -21 -2 -14 -25 -12 -40 2 -4 4 0 7 10 7 13 -2 18 5 19 23 0 40
-12 59 -37 54 -13 -2 -17 -2 -11 2 9 4 10 11 3 24 -7 13 -7 21 2 26 6 4 8 3 5
-3 -4 -6 1 -17 11 -24 15 -12 15 -12 5 1 -6 8 -11 17 -10 20 3 10 -30 50 -36
43 -4 -3 -7 -1 -7 5 0 7 6 12 13 13 6 0 -1 7 -18 14 -29 14 -29 14 -5 15 l25
1 -23 12 c-12 7 -19 16 -16 20 4 4 -1 7 -12 7 -16 0 -17 2 -4 10 8 5 10 10 4
10 -7 0 -14 9 -17 21 -4 16 -2 19 10 15 13 -5 14 -4 3 9 -7 8 -20 15 -29 15
-13 0 -14 2 -1 9 8 6 18 7 23 4 5 -3 4 4 -2 14 -6 11 -7 24 -3 28 4 5 2 6 -3
2 -6 -3 -17 -2 -25 4 -10 6 -11 9 -2 9 6 0 12 5 12 11 0 5 -5 7 -12 3 -7 -5
-8 -3 -2 7 4 8 9 26 9 41 1 20 -2 24 -11 17 -9 -8 -11 -5 -7 10 3 12 10 18 16
14 6 -3 7 -1 3 5 -4 6 -12 9 -19 6 -7 -2 -18 6 -26 18 -10 18 -10 20 0 11 17
-17 26 -16 26 2 0 8 -2 13 -5 10 -2 -2 -11 3 -20 11 -12 12 -12 18 -2 27 10 9
11 9 5 -2 -5 -9 -4 -12 3 -7 7 4 12 2 12 -5 0 -7 3 -9 7 -5 4 4 -5 18 -21 32
l-27 26 20 22 c16 17 18 23 7 23 -8 0 -12 -5 -9 -10 4 -6 1 -7 -6 -3 -9 6 -8
13 6 29 10 11 12 17 5 13 -6 -4 -12 -4 -13 1 0 4 -2 18 -3 30 -2 16 1 20 9 13
7 -6 11 -3 11 10 0 10 -4 16 -9 13 -5 -3 -7 0 -5 8 3 8 11 13 17 11 7 -1 10 2
6 8 -4 7 -13 7 -28 -1 -22 -10 -22 -10 -2 6 12 9 16 19 10 23 -16 12 -16 32 0
26 8 -4 15 -1 15 5 0 6 -5 11 -12 11 -6 0 -8 3 -5 7 4 3 2 12 -5 20 -8 11 -7
12 6 7 11 -4 16 -1 16 10 0 28 1 31 16 53 11 18 11 21 1 17 -8 -3 -14 2 -14
10 0 8 5 12 10 9 6 -4 8 0 4 10 -3 10 -2 17 4 17 6 0 7 5 4 10 -3 6 0 10 7 10
9 0 9 3 -2 10 -13 8 -12 11 5 25 16 12 17 14 3 9 -10 -3 -18 -1 -18 5 0 6 5
11 10 11 6 0 10 7 10 16 0 9 -5 12 -12 8 -9 -6 -9 -3 0 9 8 9 10 22 6 28 -5 8
-3 9 5 5 7 -5 10 -14 7 -22 -3 -7 -1 -16 4 -19 4 -3 7 6 4 20 -2 14 -5 36 -7
49 -3 19 0 23 17 19 12 -3 17 -1 11 4 -14 11 -18 36 -5 28 5 -3 10 -1 10 5 0
6 4 9 9 6 5 -3 8 7 7 23 -1 21 2 27 11 24 16 -6 14 17 -2 30 -6 5 2 7 17 4 27
-4 27 -4 12 26 -11 19 -12 27 -3 22 9 -6 11 -2 6 14 -3 13 -3 20 0 17 10 -10
45 15 39 29 -3 8 0 17 6 21 6 4 8 3 5 -3 -12 -19 27 -25 40 -7 8 11 13 13 13
5 0 -7 5 -9 13 -5 8 6 8 3 -1 -9 -12 -15 -11 -15 17 -7 19 5 31 5 31 -1 0 -5
-6 -9 -12 -9 -9 0 -8 -3 2 -9 8 -6 17 -8 21 -5 4 2 10 0 14 -6 4 -7 12 -7 26
0 12 7 19 7 19 1 0 -6 8 -8 18 -5 14 5 15 4 2 -5 -13 -9 -12 -13 4 -28 12 -11
15 -12 9 -3 -10 13 -8 16 6 16 10 0 17 -6 14 -12 -6 -16 14 -27 23 -13 5 8 3
9 -6 4 -9 -5 -11 -4 -6 4 11 17 36 -6 30 -27 -2 -9 1 -7 7 6 7 12 16 22 21 22
10 0 6 -23 -5 -31 -5 -3 -1 -9 8 -12 9 -4 13 -3 10 3 -3 6 -2 10 4 10 5 0 15
-8 21 -17 9 -15 10 -14 4 7 -6 24 -6 24 9 5 8 -11 13 -23 11 -27 -2 -4 0 -9 5
-12 5 -4 13 -1 17 5 5 8 3 9 -6 4 -9 -6 -11 -4 -6 4 10 16 48 -16 39 -33 -3
-6 -2 -7 2 -3 5 4 15 -3 22 -15 7 -13 12 -17 13 -10 0 7 4 10 10 7 6 -4 7 1 4
12 -4 10 5 3 20 -16 14 -19 26 -30 26 -23 0 7 9 12 21 12 16 0 19 -4 14 -22
-7 -23 -7 -23 9 -3 14 18 15 18 16 3 0 -10 5 -18 11 -18 5 0 7 5 4 10 -4 6 5
5 19 -2 14 -6 26 -16 26 -21 0 -5 -6 -4 -14 2 -11 9 -16 9 -22 0 -4 -8 -3 -9
4 -5 7 4 12 3 12 -3 0 -6 12 -8 32 -4 25 5 29 3 23 -8 -8 -12 -6 -12 8 -1 14
12 20 10 42 -14 14 -15 35 -28 46 -29 12 -1 24 -7 28 -13 4 -6 24 -12 45 -14
20 -1 40 -6 43 -11 2 -4 11 -2 19 4 9 7 14 8 13 3 -1 -5 -1 -20 1 -34 1 -23 2
-23 10 -5 7 17 9 17 9 3 1 -21 13 -22 44 -7 20 9 20 9 4 -4 -15 -13 -15 -16
-3 -27 9 -6 20 -9 26 -5 5 3 10 2 10 -3 0 -8 15 -12 55 -13 16 0 17 -2 5 -9
-13 -8 -12 -10 3 -10 10 0 16 -4 13 -9 -3 -4 6 -7 19 -5 22 2 30 -6 26 -28 0
-4 6 -5 13 -2 8 3 24 -3 35 -13 12 -10 26 -19 31 -19 6 -1 15 -2 21 -3 5 0 7
-6 3 -13 -4 -7 -3 -8 4 -4 6 4 9 13 6 21 -4 8 -10 12 -15 9 -5 -3 -6 2 -2 12
5 14 7 14 18 -5 6 -12 14 -18 19 -14 4 4 4 -1 0 -11 -6 -16 -4 -17 14 -7 14 7
23 8 27 1 4 -6 11 -7 17 -4 7 4 8 2 4 -5 -5 -7 -13 -9 -20 -4 -7 4 -4 1 6 -9
13 -12 15 -18 6 -21 -7 -3 1 -4 17 -2 37 3 55 -3 51 -18 -1 -7 -1 -9 2 -4 2 4
12 12 23 17 15 8 17 7 13 -5 -3 -8 -11 -12 -17 -8 -6 3 -7 1 -3 -6 4 -6 12 -9
17 -6 5 4 9 0 10 -7 0 -7 4 -4 9 7 5 11 9 14 9 7 1 -8 6 -10 14 -6 7 5 7 2 -2
-10 -8 -9 -10 -16 -5 -15 22 4 34 -2 34 -17 0 -8 5 -12 10 -9 6 4 8 11 5 16
-3 5 1 6 9 3 9 -3 16 -14 16 -24 0 -11 4 -21 9 -24 4 -3 6 7 4 22 l-4 27 16
-25 c9 -14 14 -17 11 -8 -3 10 0 20 6 24 7 4 8 3 4 -4 -4 -7 -2 -12 4 -12 6 0
9 -4 6 -9 -3 -5 1 -11 9 -15 8 -3 19 3 25 12 8 13 10 14 9 2 -3 -36 0 -43 16
-30 12 10 16 9 21 -3 3 -9 2 -21 -2 -28 -4 -8 -3 -9 5 -5 6 4 19 2 27 -5 12
-9 14 -9 11 2 -2 8 -2 11 0 6 3 -4 9 -5 14 -2 5 4 6 0 3 -8 -3 -8 3 -20 12
-28 12 -9 15 -10 10 -1 -4 7 -1 12 8 12 10 0 16 -9 17 -22 1 -22 1 -22 9 2 7
21 15 12 11 -12 0 -5 4 -8 10 -8 6 0 9 7 6 15 -4 8 -2 17 4 20 5 4 9 3 8 -2
-1 -4 0 -11 1 -15 1 -5 3 -13 4 -20 2 -17 34 -18 50 -2 12 11 15 11 20 -2 3
-8 2 -12 -3 -9 -5 3 -12 1 -15 -4 -4 -5 2 -8 11 -6 10 1 17 8 15 16 -3 10 0
10 12 -1 10 -7 16 -8 16 -2 0 6 -5 14 -10 17 -16 10 0 27 18 20 9 -3 13 -3 9
1 -4 4 0 18 9 32 9 13 11 21 5 18 -6 -4 -11 0 -11 10 0 10 3 14 7 11 6 -6 33
36 37 58 1 6 5 11 9 13 16 5 19 1 8 -11 -8 -10 -7 -14 4 -14 7 0 14 3 13 6 0
3 1 8 2 11 8 21 6 40 -3 40 -7 0 -6 4 2 9 8 5 20 7 28 4 7 -3 13 2 13 11 0 9
5 16 11 16 5 0 7 -4 4 -10 -3 -5 0 -7 9 -4 9 3 12 12 8 22 -5 15 -3 15 11 4
14 -12 16 -11 12 7 -2 11 1 24 7 27 6 4 8 2 4 -4 -3 -6 -2 -13 4 -17 5 -3 10
1 10 10 0 8 7 18 15 21 8 4 13 9 11 13 -2 3 3 13 12 21 14 13 15 12 9 -3 -3
-9 -2 -17 3 -17 6 0 10 5 10 11 0 5 6 7 13 3 8 -5 7 -2 -2 9 -12 15 -11 17 9
15 13 -2 25 3 27 12 4 13 3 13 -6 0 -9 -13 -12 -13 -23 -1 -8 9 -9 11 -1 7 6
-3 14 -2 18 4 3 5 13 10 21 10 8 0 12 -4 9 -10 -3 -5 -1 -10 5 -10 6 0 8 11 6
24 -3 18 -1 23 10 19 8 -3 11 -10 7 -16 -3 -6 -1 -7 6 -3 9 6 9 12 -1 24 -7
10 -9 14 -4 10 13 -11 48 11 40 24 -5 7 -2 8 5 4 7 -5 10 -15 7 -23 -3 -8 -1
-11 5 -8 5 4 7 14 5 23 -3 10 -1 24 4 32 7 11 10 11 10 2 0 -10 5 -10 21 -1
13 6 19 7 15 1 -3 -6 1 -9 10 -8 8 1 19 8 23 15 5 7 12 13 17 13 21 1 33 11
27 22 -4 6 1 5 10 -3 15 -12 17 -12 11 3 -5 12 -2 15 12 9 10 -4 15 -2 11 3
-3 6 -1 16 4 24 8 12 9 11 7 -4 -2 -10 2 -21 9 -23 7 -3 10 4 6 19 -5 23 -5
23 11 3 10 -11 14 -14 10 -6 -4 9 -2 12 7 9 8 -3 21 1 31 9 15 14 36 20 66 22
8 1 10 6 6 14 -4 6 2 3 14 -7 15 -13 22 -15 22 -6 0 7 3 10 7 7 3 -4 13 2 21
14 8 11 19 18 26 16 6 -3 12 6 12 20 2 22 1 23 -11 6 -11 -15 -16 -16 -27 -5
-11 11 -10 12 2 7 11 -4 16 1 17 14 1 12 -3 18 -11 15 -12 -5 -15 10 -18 84
-1 23 -5 42 -9 42 -4 0 -6 -11 -5 -25 2 -13 -1 -22 -6 -19 -5 3 -7 12 -4 19 3
8 0 16 -7 19 -9 3 -9 5 1 5 6 1 12 6 12 12 0 5 -4 8 -8 5 -5 -3 -9 1 -9 10 0
10 7 12 21 8 l21 -6 -20 18 c-20 19 -32 100 -13 88 4 -3 8 2 8 11 0 10 -5 14
-12 10 -7 -4 -3 2 9 13 19 17 20 21 7 26 -10 4 -13 2 -8 -6 4 -7 3 -8 -5 -4
-6 4 -9 12 -5 17 3 5 10 7 15 4 5 -4 9 1 9 10 0 9 -4 14 -9 11 -5 -4 -7 4 -3
16 3 12 7 17 10 10 2 -7 8 -10 13 -6 5 3 5 13 -1 25 -6 10 -7 19 -3 18 19 -3
27 2 14 10 -10 7 -11 12 -1 27 10 16 11 16 6 2 -3 -10 -1 -18 5 -18 7 0 9 12
7 29 -2 17 -2 30 1 29 3 0 13 0 21 1 13 1 13 2 0 11 -13 8 -13 11 -1 22 12 11
12 10 5 -2 -7 -12 -4 -12 16 2 15 9 24 24 23 36 -1 11 4 23 13 26 8 3 12 2 9
-4 -3 -5 3 -34 14 -64 10 -30 17 -57 14 -59 -2 -3 5 -8 16 -12 12 -3 21 -11
21 -17 0 -7 -5 -6 -14 1 -11 9 -16 9 -22 0 -4 -7 -3 -9 4 -5 6 3 16 -2 22 -11
8 -14 13 -15 17 -5 4 10 8 9 18 -5 10 -13 10 -21 2 -31 -12 -15 9 -35 30 -27
8 2 10 -2 6 -12 -5 -13 -2 -15 16 -10 17 4 20 3 11 -8 -8 -9 -6 -14 6 -19 9
-3 21 -3 27 1 7 4 7 0 -1 -9 -9 -11 -10 -18 -2 -23 6 -3 7 -11 4 -17 -4 -6 -2
-8 4 -4 6 3 14 2 17 -4 5 -8 11 -8 20 0 12 10 13 8 10 -10 -3 -18 -2 -20 10
-10 11 10 15 10 15 1 0 -7 4 -10 9 -7 5 4 11 1 13 -4 2 -6 13 -12 26 -13 13
-1 21 -7 19 -15 -2 -14 20 -24 56 -23 9 0 15 -4 12 -10 -4 -5 -1 -9 4 -9 6 0
11 6 11 13 1 6 8 0 16 -15 15 -28 34 -37 34 -17 0 5 -4 7 -10 4 -5 -3 -10 -1
-10 4 0 15 11 14 31 -4 15 -14 18 -14 34 2 17 16 17 16 10 -7 -7 -23 -7 -24
11 -10 10 8 16 10 12 6 -8 -9 32 -35 62 -41 8 -2 15 -4 15 -5 0 -1 11 -3 25
-6 19 -3 21 -2 10 6 -11 6 -5 9 22 7 20 -1 34 -5 32 -8 -2 -3 9 -11 24 -18 26
-11 26 -11 7 5 -18 15 -18 16 -2 10 10 -3 21 -6 23 -6 2 0 4 -6 4 -13 0 -7 9
-13 20 -13 11 0 20 4 20 8 0 4 5 8 11 8 5 0 7 -5 3 -12 -5 -7 -2 -9 7 -6 14 5
42 -15 33 -24 -2 -3 3 -5 11 -5 20 0 19 7 -2 23 -11 8 -13 13 -5 14 7 0 20
-13 31 -30 10 -16 21 -27 24 -23 4 3 3 11 -1 18 -4 6 0 3 10 -7 9 -10 21 -18
27 -18 6 0 11 -7 11 -15 0 -19 15 -19 32 -1 11 12 16 9 30 -22 16 -35 17 -35
12 -7 l-6 30 20 -31 c21 -33 51 -59 38 -33 -4 8 0 5 8 -5 11 -13 16 -15 16 -6
0 7 3 10 6 7 4 -4 1 -13 -5 -21 -10 -12 -8 -16 8 -21 12 -3 21 -13 21 -21 0
-8 8 -14 18 -14 13 0 14 -2 4 -9 -11 -7 -11 -9 1 -14 8 -3 19 -2 23 1 5 4 1
-1 -10 -11 -20 -18 -19 -18 10 -13 16 4 23 3 16 0 -10 -5 -9 -10 5 -21 16 -13
16 -14 1 -9 -12 3 -15 1 -11 -9 3 -8 9 -13 13 -10 5 3 12 0 16 -6 4 -7 3 -9
-4 -5 -6 3 -13 2 -17 -4 -3 -5 -1 -10 5 -10 6 0 8 -4 5 -10 -3 -5 1 -10 10
-10 9 0 13 -5 10 -10 -4 -6 -11 -7 -17 -4 -7 4 -8 2 -4 -5 4 -6 12 -9 17 -6 5
4 9 -2 10 -12 0 -10 2 -26 4 -36 2 -9 -1 -15 -6 -11 -5 3 -7 10 -4 15 4 5 2 9
-3 9 -6 0 -9 -11 -8 -24 0 -13 4 -22 9 -19 4 2 7 -10 7 -26 0 -17 0 -33 0 -36
0 -3 -3 -4 -7 -2 -5 1 -8 12 -7 24 0 12 -4 19 -9 16 -4 -3 -6 -11 -3 -18 3 -8
0 -16 -7 -19 -9 -3 -9 -5 1 -5 6 -1 12 -8 12 -17 0 -9 5 -12 13 -8 7 5 6 1 -2
-10 -13 -16 -13 -17 4 -14 11 1 20 -3 21 -9 1 -7 2 -18 3 -24 1 -8 7 -7 18 2
11 10 14 10 9 2 -4 -7 -2 -13 3 -13 6 0 10 -6 9 -12 -2 -7 3 -12 11 -10 8 2
11 -3 8 -12 -3 -8 1 -22 8 -33 8 -10 15 -13 15 -7 0 5 -5 15 -12 22 -8 8 -8
12 -1 12 6 0 14 -7 17 -16 3 -8 11 -12 17 -8 8 4 9 3 5 -4 -4 -7 -1 -12 6 -12
9 0 9 -3 -2 -10 -12 -8 -11 -10 8 -10 12 0 22 -5 22 -11 0 -5 4 -8 8 -5 4 2 8
-10 7 -27 0 -26 4 -33 23 -35 12 -2 22 -8 22 -13 0 -6 -4 -8 -9 -4 -5 3 -13 1
-16 -5 -4 -6 -3 -10 2 -9 4 1 16 -1 25 -5 15 -7 16 -12 6 -29 -10 -19 -9 -20
4 -9 13 10 18 10 24 1 4 -8 3 -9 -4 -5 -7 4 -12 3 -12 -3 0 -5 5 -13 10 -16
17 -10 11 -25 -12 -35 l-23 -9 24 0 c24 -1 24 -2 6 -15 -17 -12 -18 -16 -5
-32 8 -10 10 -15 3 -11 -7 5 -9 0 -5 -15 4 -16 2 -19 -9 -13 -11 7 -11 5 1
-10 11 -14 12 -17 1 -11 -9 6 -12 5 -9 -5 2 -7 -5 -22 -16 -32 -12 -10 -16
-16 -9 -13 6 4 14 2 17 -3 4 -5 -4 -13 -15 -16 -20 -7 -20 -8 -6 -17 19 -10
23 -28 6 -28 -5 0 -7 6 -4 13 4 6 -1 3 -9 -7 -9 -11 -16 -16 -16 -10 0 5 -5 1
-11 -8 -5 -10 -18 -18 -27 -17 -10 0 -12 3 -4 6 6 2 12 9 12 14 0 6 -4 7 -10
4 -8 -5 -14 12 -12 36 0 3 -12 4 -28 3 -26 -2 -28 0 -20 16 12 23 13 33 2 26
-4 -2 -14 -1 -22 4 -11 7 -11 12 -2 23 9 11 9 14 -3 14 -8 0 -12 -4 -9 -9 3
-4 0 -8 -5 -8 -6 0 -11 6 -11 14 0 8 -9 18 -20 21 -11 3 -20 10 -20 15 0 4 -8
11 -17 14 -16 6 -16 6 0 -12 19 -21 22 -32 6 -32 -5 0 -7 4 -4 10 3 5 -5 15
-19 21 -14 7 -23 16 -20 20 3 5 0 9 -6 9 -7 0 -10 6 -7 13 3 9 -2 13 -16 11
-12 -1 -22 -3 -22 -4 0 -7 -36 -6 -41 1 -3 5 -11 6 -17 3 -7 -4 -8 -3 -4 1 10
11 39 16 32 6 -2 -4 2 -8 9 -8 11 0 12 4 3 18 -6 10 -14 15 -17 11 -8 -12 -70
-11 -70 1 0 6 -3 7 -7 4 -3 -4 -12 -2 -20 5 -10 8 -12 8 -8 -4 4 -9 0 -15 -10
-15 -9 0 -14 5 -12 11 3 6 -7 11 -23 11 -16 0 -26 -3 -24 -7 9 -14 -22 -14
-34 1 -11 14 -11 14 -6 -3 6 -16 4 -17 -13 -7 -16 8 -24 7 -33 -4 -11 -13 -14
-13 -27 2 -8 10 -11 12 -7 4 3 -7 1 -17 -5 -21 -7 -4 -13 -15 -15 -24 -2 -17
-21 -23 -21 -7 0 5 -3 12 -6 15 -4 4 -6 -6 -5 -21 1 -22 -3 -27 -18 -25 -12 2
-15 -1 -11 -8 6 -9 2 -9 -15 0 -15 8 -20 8 -16 1 4 -6 2 -11 -3 -11 -6 0 -11
-7 -11 -16 0 -8 -5 -12 -10 -9 -6 4 -10 3 -9 -2 4 -21 -2 -33 -16 -33 -8 0
-15 -4 -15 -10 0 -5 6 -8 13 -6 6 1 9 1 4 -1 -4 -3 -5 -9 -2 -14 4 -5 -1 -6
-9 -3 -9 3 -16 11 -16 17 0 6 -3 7 -7 4 -3 -4 2 -16 12 -27 18 -20 18 -20 1
-14 -16 6 -17 3 -11 -17 7 -21 6 -22 -8 -11 -12 10 -17 10 -23 1 -4 -8 -3 -9
4 -5 7 4 12 3 12 -3 0 -5 -10 -13 -22 -17 -19 -6 -19 -7 -5 -16 10 -5 17 -14
17 -21 0 -7 -4 -6 -10 3 -8 13 -10 12 -11 -5 -1 -11 -1 -23 0 -27 0 -4 -7 -4
-15 -1 -12 4 -15 2 -12 -8 3 -8 11 -13 18 -11 11 2 11 0 0 -13 -12 -14 -11
-18 1 -27 11 -8 10 -9 -4 -4 -15 5 -17 2 -12 -15 5 -13 3 -19 -3 -15 -6 4 -7
-6 -2 -29 4 -19 4 -33 0 -30 -5 3 -11 1 -14 -4 -4 -5 5 -8 19 -7 13 2 22 -1
19 -5 -3 -5 -11 -9 -18 -9 -9 0 -12 -9 -8 -26 3 -16 -1 -30 -9 -36 -11 -8 -10
-9 3 -4 10 3 20 1 23 -4 4 -6 -1 -10 -9 -10 -8 0 -18 -5 -22 -12 -4 -7 -3 -8
4 -4 8 4 12 0 12 -11 0 -15 2 -16 10 -3 7 12 9 10 7 -8 -1 -13 -6 -21 -14 -18
-14 6 -5 -25 11 -36 7 -5 7 -8 1 -8 -6 0 -11 -13 -11 -30 -1 -16 2 -30 7 -30
4 0 6 9 4 20 -2 11 0 22 4 24 4 3 7 -9 6 -27 -1 -18 5 -45 12 -60 8 -15 11
-32 8 -37 -3 -6 1 -7 10 -4 13 5 13 9 3 23 -11 14 -11 14 3 4 9 -7 20 -9 25
-5 5 4 0 -4 -11 -17 -20 -23 -20 -23 0 -20 11 2 20 0 20 -6 0 -5 4 -17 10 -25
8 -13 7 -13 -8 -1 -9 7 -14 18 -10 24 3 6 1 7 -5 3 -8 -5 -9 -13 -3 -24 4 -9
7 -25 6 -34 -2 -10 0 -17 3 -17 22 3 32 -3 32 -21 0 -12 7 -20 18 -20 14 0 15
-2 2 -10 -13 -9 -13 -10 0 -11 8 -1 19 -1 23 0 5 1 6 -3 2 -9 -3 -5 0 -10 7
-10 9 0 9 -3 -2 -10 -12 -8 -12 -10 -1 -10 10 0 11 -3 2 -14 -9 -11 -9 -16 0
-22 7 -4 9 -3 6 3 -4 6 -1 16 7 22 11 9 14 6 14 -16 0 -16 -4 -30 -9 -33 -4
-3 1 -11 12 -19 12 -7 18 -8 15 -2 -5 7 -1 8 9 5 9 -4 13 -9 10 -12 -3 -3 2
-16 11 -30 9 -13 11 -21 4 -17 -9 5 -8 1 1 -16 7 -13 14 -26 14 -29 2 -16 24
-42 38 -44 25 -3 31 -14 8 -12 -11 0 -21 -3 -21 -9 0 -5 9 -9 20 -9 15 1 18
-2 10 -11 -8 -9 -7 -14 3 -18 8 -3 17 -17 19 -31 3 -16 1 -23 -5 -19 -6 3 -7
1 -3 -5 4 -7 2 -12 -5 -12 -7 0 -10 -3 -7 -6 4 -3 17 0 30 7 20 11 21 10 11
-3 -10 -11 -10 -17 -1 -26 16 -16 19 -44 7 -58 -7 -8 -6 -14 1 -19 6 -3 7 -11
4 -17 -4 -6 -2 -8 3 -5 6 4 18 -9 27 -28 9 -19 21 -37 26 -40 6 -4 8 -11 4
-16 -3 -5 -10 -7 -15 -3 -5 3 -7 10 -4 15 4 5 1 9 -4 9 -17 0 -13 -19 8 -31
11 -8 17 -20 14 -33 -4 -15 -2 -17 5 -8 7 11 10 11 15 -3 5 -11 3 -14 -5 -9
-8 5 -9 1 -4 -12 12 -30 12 -39 0 -37 -6 1 -10 -10 -9 -25 1 -15 -3 -31 -9
-35 -6 -5 0 -6 14 -2 l25 6 -23 -20 c-21 -18 -21 -20 -4 -25 10 -4 19 -13 19
-21 0 -11 -4 -12 -14 -3 -11 8 -12 7 -7 -5 3 -8 13 -18 22 -22 15 -5 13 -9 -8
-25 -24 -19 -24 -19 -3 -15 13 2 26 -1 29 -7 4 -6 2 -8 -4 -4 -6 3 -13 2 -17
-4 -4 -6 -11 -8 -16 -5 -5 4 -4 -5 2 -19 7 -14 16 -23 20 -20 5 3 9 0 9 -5 0
-6 -6 -11 -13 -11 -9 0 -13 -10 -12 -27 0 -16 7 -28 15 -28 7 0 14 -8 16 -18
1 -9 -2 -15 -7 -11 -5 3 -7 10 -4 15 3 5 -1 6 -10 2 -9 -3 -12 -9 -7 -12 17
-11 19 -36 6 -74 -12 -33 -12 -41 1 -53 15 -15 10 -48 -6 -38 -5 3 -9 0 -9 -5
0 -6 4 -11 9 -11 5 0 9 -11 9 -25 0 -22 -3 -24 -16 -13 -13 11 -14 10 -3 -10
7 -13 17 -20 24 -15 8 4 7 1 -1 -10 -8 -9 -11 -21 -7 -26 4 -7 -1 -9 -12 -5
-17 5 -17 5 0 -9 24 -20 21 -30 -5 -16 -22 12 -22 11 -8 -7 8 -10 20 -22 25
-26 6 -5 5 -8 -3 -8 -7 0 -10 -4 -7 -10 3 -5 0 -7 -8 -4 -8 3 -14 -1 -14 -10
0 -8 4 -13 8 -11 4 3 10 -2 13 -11 3 -8 2 -13 -2 -11 -4 2 -15 -4 -24 -15 -21
-21 -16 -23 15 -6 19 10 20 9 10 -4 -7 -8 -9 -19 -5 -24 4 -5 3 -6 -2 -2 -10
9 -42 -30 -32 -39 3 -3 1 -14 -4 -24 -8 -13 -6 -19 8 -22 16 -4 16 -5 0 -6
-10 0 -18 -6 -18 -12 0 -5 6 -7 13 -3 9 6 9 4 1 -7 -6 -8 -10 -22 -8 -32 1
-12 -2 -17 -11 -13 -7 2 -21 -5 -31 -17 -10 -12 -12 -16 -4 -9 18 16 27 15 27
-3 0 -8 -4 -12 -8 -10 -4 3 -10 -2 -13 -11 -3 -8 -2 -13 3 -10 5 4 7 -4 3 -16
-4 -16 -2 -19 9 -13 11 7 12 6 2 -7 -7 -8 -9 -19 -5 -23 4 -5 1 -4 -7 0 -11 6
-13 4 -8 -8 4 -10 -3 -25 -18 -39 -17 -16 -21 -26 -13 -35 6 -7 15 -10 22 -6
6 4 4 -2 -4 -13 -22 -30 -24 -30 -17 -9 7 18 6 19 -6 3 -8 -10 -16 -15 -19
-12 -4 3 -5 -3 -4 -13 0 -10 -5 -17 -12 -15 -8 1 -11 -2 -7 -8 3 -6 11 -8 16
-5 5 4 9 1 9 -4 0 -6 -7 -11 -15 -11 -13 0 -14 -4 -5 -20 6 -11 8 -20 4 -20
-3 0 -1 -6 5 -13 8 -10 7 -14 -3 -14 -8 0 -13 8 -11 19 2 10 0 16 -6 13 -5 -4
-7 -10 -4 -15 3 -5 -3 -16 -12 -26 -17 -17 -17 -18 0 -11 24 9 21 -8 -5 -33
-15 -14 -17 -19 -7 -15 10 4 20 1 25 -6 4 -7 3 -10 -3 -6 -6 4 -19 -1 -29 -9
-16 -13 -16 -15 -2 -10 10 3 20 1 23 -5 4 -5 1 -8 -7 -7 -7 2 -12 -3 -10 -11
3 -12 0 -12 -12 -2 -8 6 -17 8 -20 3 -6 -10 -2 -39 7 -48 3 -4 -4 -15 -16 -26
-17 -15 -18 -18 -4 -14 15 5 16 3 6 -17 -7 -12 -12 -23 -11 -24 1 -2 0 -3 -3
-3 -3 0 -8 0 -11 0 -4 0 -1 7 6 15 8 9 8 15 2 15 -16 0 -20 -23 -9 -45 10 -19
9 -19 -8 -5 -17 14 -18 13 -12 -2 4 -10 10 -26 13 -35 5 -15 4 -16 -5 -3 -8
11 -11 12 -11 2 0 -8 -5 -10 -12 -6 -10 5 -10 4 -1 -6 13 -14 7 -40 -9 -40 -7
0 -6 5 1 13 8 10 7 14 -3 14 -7 0 -13 -10 -13 -21 -1 -30 -14 -66 -24 -66 -5
0 -5 -7 -2 -17 4 -9 2 -14 -3 -10 -6 3 -16 2 -23 -2 -10 -6 -9 -10 4 -14 9 -4
13 -3 10 3 -4 6 1 7 11 3 11 -4 13 -8 6 -11 -7 -2 -10 -8 -6 -13 3 -5 -7 -4
-22 1 -25 10 -26 9 -13 -7 12 -15 12 -16 -3 -10 -10 3 -18 5 -18 2 0 -2 8 -12
18 -21 14 -15 14 -17 1 -12 -21 8 -35 -2 -44 -32 -7 -23 -7 -24 10 -10 17 13
18 13 10 0 -5 -8 -10 -20 -11 -27 -1 -6 -7 -19 -13 -30 -11 -16 -11 -16 -6 4
3 12 1 24 -7 29 -7 4 -10 4 -6 -1 9 -9 -10 -47 -20 -41 -4 2 -8 -4 -8 -15 0
-19 1 -19 13 -3 7 10 13 13 13 7 0 -16 -25 -34 -41 -30 -8 2 -10 2 -6 -1 5 -2
1 -12 -8 -22 -12 -14 -13 -20 -4 -26 8 -5 10 -3 4 6 -5 9 -4 11 4 6 9 -6 9
-11 1 -21 -7 -8 -8 -20 -4 -26 4 -7 3 -9 -3 -6 -11 7 -47 -26 -38 -35 3 -3 -6
-4 -20 -3 -14 2 -23 -1 -19 -6 3 -5 9 -7 14 -4 11 7 7 -15 -8 -41 -6 -12 -8
-24 -4 -28 3 -4 -2 -4 -12 0 -13 5 -17 4 -12 -4 4 -7 -1 -10 -13 -7 -14 2 -18
-1 -14 -11 3 -7 10 -11 16 -7 5 3 7 1 4 -4 -4 -6 -20 -9 -37 -8 -16 1 -27 -1
-24 -6 3 -5 9 -7 14 -4 5 3 8 -3 7 -14 -1 -16 -4 -18 -16 -8 -12 10 -13 9 -6
-2 6 -11 4 -13 -10 -7 -15 5 -16 4 -5 -9 7 -8 17 -12 24 -8 6 4 5 -1 -3 -10
-15 -18 -26 -23 -16 -7 3 6 1 10 -6 10 -6 0 -9 -8 -6 -19 3 -15 0 -18 -17 -14
-17 4 -18 3 -6 -6 12 -9 11 -11 -10 -12 -14 0 -20 -3 -13 -5 7 -3 9 -12 6 -20
-4 -12 -8 -12 -20 3 -8 10 -11 12 -7 4 4 -9 0 -20 -12 -29 -18 -13 -18 -14 6
-7 l25 7 -27 -25 c-15 -13 -24 -28 -20 -33 4 -4 0 -3 -10 4 -12 10 -18 10 -24
1 -5 -8 -3 -9 6 -4 8 5 11 3 8 -6 -3 -8 -11 -13 -18 -11 -10 2 -10 -1 1 -14
12 -16 12 -17 -4 -11 -12 5 -16 3 -11 -5 5 -8 2 -9 -9 -5 -10 4 -16 2 -14 -6
1 -7 -7 -11 -18 -9 -16 2 -17 1 -5 -7 8 -5 18 -7 24 -4 5 3 6 1 2 -5 -4 -7 -2
-12 5 -12 7 0 10 -2 8 -5 -3 -2 -20 -1 -37 4 -30 9 -31 9 -21 -11 10 -18 9
-20 -5 -15 -12 5 -16 0 -16 -16 0 -18 -2 -19 -10 -7 -8 13 -10 13 -11 -2 -3
-33 -4 -37 -18 -50 -10 -10 -12 -10 -7 -1 4 7 2 13 -3 13 -6 0 -11 -5 -11 -11
0 -5 -4 -8 -8 -5 -5 3 -8 -5 -8 -17 1 -15 -4 -22 -17 -21 -17 2 -17 1 -2 -16
11 -12 13 -20 5 -25 -6 -3 -9 -1 -8 5 2 7 -4 14 -13 15 -12 2 -15 -3 -12 -19
3 -15 2 -17 -5 -8 -7 10 -11 10 -22 -2 -7 -9 -16 -13 -21 -10 -5 3 -9 0 -9 -5
0 -14 13 -14 28 1 7 7 12 9 12 5 0 -4 -10 -18 -21 -30 -12 -12 -19 -16 -15 -9
4 6 2 12 -3 12 -6 0 -11 -4 -11 -10 0 -5 -8 -7 -17 -3 -15 5 -14 3 2 -11 14
-11 15 -15 5 -14 -8 2 -14 -3 -12 -10 1 -8 -2 -11 -7 -8 -5 4 -12 0 -14 -6 -4
-10 -6 -10 -6 0 -1 6 -6 12 -12 12 -6 0 -8 -7 -5 -16 6 -15 4 -15 -10 -3 -16
13 -16 12 -4 -11 13 -24 12 -24 -5 -10 -17 14 -18 13 -12 -2 8 -23 -2 -23 -19
0 -12 15 -13 14 -4 -10 8 -23 7 -28 -6 -28 -9 0 -12 5 -8 12 5 7 3 8 -5 4 -7
-5 -10 -15 -7 -23 4 -11 1 -13 -14 -8 -15 5 -18 3 -14 -9 4 -11 0 -16 -11 -16
-10 0 -13 5 -9 12 4 6 3 8 -4 4 -6 -3 -9 -15 -7 -26 2 -11 -1 -23 -7 -26 -6
-4 -8 -3 -5 3 4 6 -1 14 -10 17 -10 4 -14 4 -10 0 9 -10 -13 -35 -24 -28 -5 3
-9 2 -8 -3 4 -22 -3 -33 -18 -33 -26 0 -44 -14 -47 -36 -2 -11 -10 -18 -19
-16 -8 1 -19 -3 -23 -9 -5 -8 -3 -9 6 -4 9 5 11 4 6 -3 -11 -18 -26 -14 -27 6
0 13 -2 12 -9 -6 -8 -19 -15 -21 -42 -17 -23 4 -29 2 -18 -4 8 -5 17 -8 21 -5
4 2 10 0 14 -5 3 -6 -4 -8 -16 -6 -16 3 -19 0 -15 -12 6 -13 4 -14 -9 -3 -9 7
-15 9 -14 4 4 -23 -2 -26 -16 -8 -13 16 -14 16 -9 2 4 -13 1 -18 -11 -18 -12
0 -15 -5 -11 -16 6 -15 4 -15 -11 -3 -15 12 -16 12 -10 -3 4 -12 2 -15 -8 -11
-8 3 -13 9 -10 13 3 5 0 12 -6 16 -8 4 -9 3 -5 -4 4 -7 2 -12 -4 -12 -6 0 -8
-4 -5 -10 3 -5 -3 -10 -14 -10 -10 0 -21 -4 -23 -10 -1 -5 -15 -11 -31 -12
-20 -2 -26 -7 -22 -18 3 -10 1 -9 -9 3 -8 11 -17 14 -20 8 -4 -6 -14 -8 -24
-5 -14 5 -14 4 -2 -4 8 -6 18 -8 24 -5 5 3 6 1 2 -5 -3 -5 0 -12 6 -15 7 -2
-5 -4 -27 -4 -22 0 -59 -3 -83 -6 -39 -5 -42 -4 -30 10 12 15 11 15 -12 2 -14
-7 -33 -14 -42 -15 -20 -1 -24 11 -8 21 5 3 10 1 10 -4 0 -6 5 -11 11 -11 8 0
7 5 -1 15 -9 11 -16 13 -24 5 -5 -5 -18 -10 -28 -10 -10 0 -18 -6 -18 -12 -1
-7 -7 -2 -14 11 -13 23 -14 23 -19 5 -4 -18 -5 -18 -6 2 0 11 5 26 12 34 6 8
3 7 -8 -2 -16 -13 -22 -14 -32 -3 -6 7 -9 16 -5 21 4 4 1 4 -6 0 -7 -4 -10
-11 -7 -16 3 -5 0 -12 -6 -16 -8 -4 -9 -3 -5 4 4 7 2 12 -3 12 -6 0 -11 7 -11
16 0 9 5 12 13 8 6 -4 8 -3 4 1 -10 12 -38 15 -31 4 3 -5 0 -9 -5 -9 -6 0 -11
7 -11 15 0 8 -5 15 -11 15 -5 0 -7 -6 -3 -12 5 -10 4 -10 -6 -1 -8 7 -15 23
-17 35 -4 26 -41 68 -60 68 -7 0 -13 4 -13 10 0 5 6 8 13 6 6 -1 9 -1 4 1 -4
3 -4 10 0 16 4 7 -5 4 -19 -5 -25 -16 -26 -16 -23 0 1 9 8 16 14 14 6 -1 11 2
11 8 0 5 -4 10 -9 10 -6 0 -8 9 -6 20 2 11 -1 20 -7 20 -7 0 -6 5 1 14 9 11 9
16 0 22 -8 5 -9 3 -4 -6 6 -9 4 -11 -4 -6 -7 5 -10 13 -8 20 6 14 -18 37 -29
28 -4 -4 -4 -1 0 5 5 10 13 9 34 -3 23 -13 24 -13 7 0 -61 46 -61 46 -42 40 9
-3 17 -1 17 5 0 6 -4 11 -10 11 -5 0 -10 5 -10 11 0 5 5 7 10 4 15 -9 12 4 -5
21 -15 15 -10 48 6 38 5 -3 9 -1 9 5 0 5 -5 11 -11 13 -17 6 -17 51 0 64 11 9
12 12 1 19 -9 5 -11 4 -6 -3 11 -18 0 -14 -15 5 -12 14 -12 16 0 8 11 -6 13
-4 8 8 -4 10 0 20 10 25 13 8 13 10 -2 16 -14 5 -15 9 -5 21 7 8 18 15 24 15
6 0 2 -7 -8 -15 -11 -8 -15 -15 -9 -15 6 0 16 7 23 15 10 12 9 16 -3 21 -9 3
-21 3 -27 -1 -6 -4 -9 -1 -8 6 2 6 -2 13 -8 16 -7 2 -10 -6 -9 -22 2 -14 -1
-25 -7 -25 -6 0 -4 -8 3 -17 13 -16 12 -17 -3 -4 -13 10 -15 18 -8 32 8 15 7
17 -4 13 -14 -6 -14 -32 0 -57 5 -8 2 -8 -9 2 -12 9 -17 10 -17 2 0 -7 -5 -9
-12 -5 -7 5 -8 3 -3 -6 4 -7 2 -16 -5 -20 -9 -6 -7 -10 9 -15 19 -6 19 -8 6
-21 -8 -9 -13 -20 -10 -25 10 -16 -5 -31 -19 -20 -9 8 -13 7 -13 -4 0 -8 3
-15 7 -15 6 0 6 -35 0 -50 -1 -3 -2 -9 -1 -13 1 -5 -2 -6 -7 -3 -5 3 -16 -4
-25 -15 -11 -12 -12 -19 -5 -19 7 0 3 -7 -8 -15 -18 -13 -18 -14 6 -9 25 4 25
4 3 -7 -27 -14 -31 -31 -6 -23 17 5 17 5 1 -8 -13 -11 -14 -18 -5 -33 9 -18 9
-18 -5 -7 -14 11 -16 10 -11 -7 3 -12 10 -18 17 -14 7 4 6 1 -1 -9 -7 -8 -9
-19 -5 -23 4 -5 -1 -5 -11 -2 -10 4 -16 3 -12 -2 3 -5 2 -11 -2 -14 -5 -2 -1
-2 7 0 12 3 12 1 3 -8 -7 -7 -9 -20 -4 -33 5 -11 7 -33 5 -48 -1 -17 2 -27 9
-25 7 1 11 -4 9 -12 -1 -7 3 -20 10 -29 10 -12 10 -14 1 -8 -7 4 -13 3 -13 -3
0 -5 5 -13 11 -16 6 -4 8 -13 5 -21 -7 -17 10 -28 18 -12 3 7 4 4 3 -7 -1 -12
3 -19 11 -17 8 1 11 -2 7 -8 -3 -6 -10 -8 -14 -6 -4 3 -8 -5 -8 -16 -2 -16 3
-19 23 -15 19 3 22 2 13 -9 -6 -8 -15 -11 -20 -8 -5 3 -6 -2 -2 -11 3 -9 9
-13 12 -8 3 4 12 9 19 11 10 2 10 -2 2 -18 -11 -20 -9 -22 20 -24 8 -1 14 -8
12 -15 -1 -7 2 -19 8 -25 5 -7 6 -16 2 -20 -4 -4 -2 -7 3 -6 22 5 36 -1 29
-12 -5 -8 -2 -9 9 -5 20 7 23 -8 5 -17 -7 -3 -2 -3 11 0 19 5 23 3 18 -10 -9
-23 20 -33 47 -16 11 7 18 9 14 5 -4 -5 -3 -13 2 -20 7 -8 5 -12 -5 -12 -8 0
-11 5 -8 10 4 6 1 7 -6 3 -12 -8 -7 -20 10 -22 5 -1 10 -2 12 -4 1 -1 10 -3
20 -5 20 -4 22 5 5 25 -7 8 -4 7 8 -3 11 -9 24 -14 29 -10 4 5 4 -3 0 -17 l-7
-25 17 23 17 23 30 -33 c16 -18 27 -28 24 -21 -4 8 4 11 23 11 18 -1 28 -5 24
-11 -4 -6 -1 -7 8 -1 23 14 53 10 70 -10 13 -16 16 -17 16 -3 0 9 -5 13 -11
10 -6 -3 -7 -2 -3 2 9 11 39 16 33 7 -2 -4 3 -14 12 -22 14 -13 15 -12 9 4 -6
14 -4 17 8 12 9 -3 13 -2 10 3 -3 5 0 13 6 17 7 4 9 3 5 -4 -3 -6 -2 -13 4
-17 5 -3 10 0 11 7 1 7 5 2 9 -12 5 -16 8 -19 9 -8 1 9 6 20 13 24 7 5 8 3 3
-7 -7 -11 -6 -12 7 -2 8 7 18 10 22 6 10 -11 37 -12 30 -2 -3 5 -10 6 -16 3
-6 -4 -8 -2 -5 4 9 13 47 4 47 -12 0 -6 5 -3 11 7 6 9 15 15 20 11 6 -3 13 4
16 16 4 16 8 18 14 9 4 -8 3 -20 -4 -29 -11 -13 -10 -13 5 -1 10 7 15 18 12
23 -3 5 2 8 12 6 11 -2 18 2 17 8 -1 6 4 11 12 11 10 0 11 -5 4 -18 -6 -12 -5
-20 3 -25 6 -4 8 -3 5 3 -4 5 4 19 18 31 19 17 24 18 29 6 3 -8 2 -12 -3 -9
-5 3 -12 1 -15 -4 -5 -8 15 -8 34 -1 3 1 14 2 25 1 l20 -1 -20 9 c-11 5 -24 6
-29 3 -5 -3 -6 0 -3 5 4 6 18 11 33 11 14 0 31 5 37 12 9 10 9 11 -2 5 -10 -6
-12 -4 -7 4 6 9 11 9 24 -1 13 -11 15 -10 9 4 -3 10 -2 18 3 18 6 0 10 -4 10
-9 0 -13 28 -7 43 9 10 12 9 12 -4 2 -13 -10 -18 -10 -22 2 -4 11 3 14 32 12
24 0 37 3 34 10 -2 6 4 17 13 25 12 9 15 10 10 2 -9 -17 6 -17 22 -1 10 10 17
10 35 -1 12 -8 19 -10 15 -6 -13 13 31 65 49 58 11 -4 14 -3 9 6 -4 6 -4 11 1
10 16 -4 43 13 37 23 -4 6 3 5 15 -1 15 -8 21 -9 21 -1 0 6 4 9 9 5 5 -3 13 0
17 6 4 8 3 9 -4 5 -7 -4 -12 -2 -12 5 0 6 8 9 20 6 13 -3 18 -1 13 6 -4 6 0 8
9 5 8 -4 21 -2 29 4 11 8 10 9 -4 4 -10 -3 -16 -2 -12 3 3 5 -1 12 -7 15 -7 3
0 2 16 -1 26 -5 28 -4 23 13 -7 18 -6 18 8 0 9 -12 15 -15 15 -7 0 10 3 11 14
2 11 -9 16 -9 22 0 4 7 3 9 -3 6 -6 -4 -17 0 -24 9 -7 8 -8 14 -3 13 23 -4 35
2 28 14 -6 9 -5 9 8 -1 12 -10 18 -10 27 2 6 7 9 20 6 28 -4 9 2 14 17 15 18
2 20 0 8 -7 -11 -7 -12 -10 -2 -10 8 0 16 9 19 20 3 11 9 17 14 14 5 -3 6 -10
3 -16 -4 -7 -2 -8 4 -4 6 4 9 13 6 20 -3 8 0 17 7 22 7 4 10 3 6 -2 -3 -6 -1
-16 4 -24 9 -13 10 -13 8 0 -3 31 1 50 12 50 6 0 8 -8 5 -18 -5 -14 -4 -14 9
2 8 11 15 23 15 26 0 9 32 6 49 -5 9 -5 12 -4 7 3 -3 6 -2 14 4 17 8 5 7 11
-1 21 -10 12 -9 13 6 8 12 -5 16 -4 11 4 -3 6 -2 13 3 16 5 4 13 1 17 -5 5 -8
3 -9 -6 -4 -9 5 -11 4 -6 -4 10 -15 27 -4 20 13 -3 9 4 12 25 11 23 -1 28 2
23 14 -3 9 -1 13 3 8 13 -11 44 23 38 41 -5 12 -2 14 12 9 16 -7 16 -5 4 10
-8 9 -9 14 -2 10 7 -4 17 0 23 10 10 16 11 16 6 1 -3 -10 -1 -20 5 -23 5 -4 8
-1 7 6 -2 7 4 13 12 14 9 0 14 8 12 20 -3 16 -1 17 11 6 17 -14 24 -6 22 25
-2 18 3 22 30 20 21 -1 31 3 28 10 -2 6 6 14 17 17 12 3 19 10 15 16 -3 6 0 9
8 5 8 -3 18 0 23 7 4 7 3 10 -4 5 -6 -3 -14 -2 -17 4 -4 6 -2 9 3 8 5 -2 21
10 36 25 14 15 26 24 26 19 0 -6 7 -13 16 -16 14 -5 15 -4 4 9 -10 13 -9 15
10 15 16 0 21 4 16 16 -4 11 -2 15 8 11 11 -4 13 -1 9 10 -5 13 -3 13 14 4 17
-8 24 -7 34 7 13 15 12 16 -3 4 -26 -21 -27 1 -1 26 19 17 23 19 21 6 -2 -9 4
-19 12 -21 9 -3 11 -1 5 4 -12 10 -15 53 -3 53 4 0 8 -4 8 -10 0 -5 5 -10 12
-10 6 0 8 3 5 7 -4 3 -2 12 5 20 9 11 7 12 -8 7 -18 -5 -18 -5 -1 6 9 6 22 8
27 5 6 -3 10 -1 10 5 0 6 5 8 13 4 9 -6 9 -5 0 8 -14 17 -8 28 16 28 9 0 22
14 28 31 11 27 15 30 28 19 8 -7 18 -10 22 -6 3 3 2 6 -4 6 -5 0 -10 7 -10 15
0 12 3 12 15 2 13 -11 14 -9 2 13 -12 23 -12 24 3 11 15 -12 17 -11 17 5 0 16
2 17 11 4 9 -12 10 -11 6 8 -3 12 -2 20 2 18 4 -3 13 -1 21 4 9 5 20 4 29 -3
11 -9 13 -9 8 0 -4 6 -2 15 4 18 5 4 8 13 5 21 -3 8 -1 14 5 14 6 0 9 6 6 14
-3 8 1 17 9 20 9 3 12 11 8 17 -4 7 -3 9 4 5 6 -3 13 -2 17 4 4 6 10 8 14 6 4
-3 13 0 21 6 12 8 12 9 -2 4 -10 -3 -18 -1 -18 4 0 6 5 10 12 10 6 0 8 3 5 7
-10 10 31 35 45 27 7 -5 8 -3 3 6 -6 9 -4 12 7 8 8 -4 15 0 15 8 0 7 -4 11 -9
8 -4 -3 -8 0 -8 5 0 6 9 11 19 11 11 0 23 5 27 12 4 6 3 8 -4 4 -6 -3 -13 -2
-17 4 -3 5 1 10 9 10 9 0 16 5 16 11 0 5 4 8 10 4 5 -3 7 -13 4 -23 -5 -14 -4
-14 4 -2 6 8 8 18 6 22 -3 4 0 8 5 8 6 0 11 4 11 10 0 5 -8 7 -17 4 -15 -5
-15 -4 -3 4 8 6 18 8 24 5 5 -4 7 1 2 12 -5 14 -4 16 7 6 12 -9 14 -6 12 14
-2 14 1 23 6 19 5 -3 6 -10 3 -16 -5 -7 -2 -8 5 -4 7 5 10 14 7 22 -3 9 1 14
12 14 15 1 15 3 -3 16 -20 16 -19 16 4 9 18 -6 22 -4 15 6 -6 12 -5 12 8 1 13
-10 18 -10 24 -1 4 8 3 9 -4 5 -7 -4 -12 -2 -12 3 0 6 5 11 10 11 6 0 10 5 10
11 0 5 -4 7 -10 4 -5 -3 -10 -4 -10 -1 0 3 9 10 20 16 17 9 19 8 14 -7 -5 -15
-4 -15 4 -3 6 8 8 18 6 22 -3 4 1 8 8 8 9 0 9 3 -2 10 -12 8 -12 10 -1 10 8 0
20 8 27 17 13 17 14 17 8 -2 -5 -16 -4 -17 5 -5 8 11 7 18 -3 26 -12 8 -11 12
5 22 10 7 27 12 36 12 15 0 15 2 3 9 -8 6 -19 7 -25 3 -5 -3 -4 2 4 11 15 18
26 23 16 7 -3 -5 -4 -10 0 -10 3 0 10 11 15 25 5 14 16 25 24 25 19 0 57 40
50 52 -3 4 0 8 5 8 6 0 11 5 11 11 0 5 -4 8 -9 4 -5 -3 -13 0 -17 6 -4 8 -3 9
4 5 7 -4 12 -2 12 5 0 9 3 9 14 0 11 -9 16 -9 22 0 4 7 3 9 -4 5 -6 -4 -10 1
-9 13 0 11 5 17 9 15 4 -3 8 0 8 6 0 6 4 8 10 5 6 -4 7 1 3 11 -5 13 -3 15 8
9 12 -8 12 -6 0 9 -8 9 -10 16 -5 15 21 -4 26 2 13 18 -13 15 -12 15 11 3 24
-13 24 -12 10 5 -8 10 -10 16 -5 13 6 -3 15 0 22 7 10 11 10 14 0 18 -19 6 11
37 37 38 11 0 15 3 8 6 -10 4 -10 8 -1 19 9 11 8 14 -2 14 -8 0 -5 6 6 14 11
8 23 12 27 10 5 -3 8 -1 8 5 0 5 -4 13 -10 16 -5 3 -10 11 -10 16 0 6 7 3 16
-5 8 -9 20 -16 27 -16 6 0 2 7 -9 16 -10 8 -13 12 -5 8 11 -5 13 -3 7 11 -6
16 -4 16 10 4 16 -13 16 -12 5 9 -7 13 -10 26 -7 30 3 3 6 0 6 -7 0 -7 5 -9
11 -6 6 4 8 14 5 22 -4 10 -2 13 8 10 20 -8 28 4 13 21 -10 13 -9 15 12 9 17
-4 21 -3 13 5 -6 6 -8 17 -5 26 4 10 2 13 -5 8 -7 -4 -12 -2 -12 3 0 6 7 11
15 11 8 0 15 -5 15 -12 0 -17 10 -3 15 21 3 15 0 19 -8 14 -8 -4 -7 -1 1 10 8
9 11 20 8 26 -3 5 5 8 19 6 21 -2 23 0 13 12 -10 12 -9 18 7 29 10 8 13 14 7
14 -7 0 -12 5 -12 11 0 5 5 7 12 3 8 -5 9 -2 4 11 -5 15 -4 16 8 6 12 -10 14
-8 12 13 -2 14 3 34 11 43 8 10 12 13 9 7 -3 -6 1 -11 9 -11 12 0 12 4 -2 20
-10 11 -12 17 -5 13 6 -4 12 -2 12 4 0 6 5 8 12 4 7 -5 8 -3 2 7 -13 22 -13
58 2 52 6 -2 18 5 26 16 8 12 19 18 24 13 4 -4 3 0 -4 9 -6 9 -8 20 -4 24 4 5
0 5 -8 1 -8 -4 -3 4 13 18 35 33 34 30 18 50 -12 14 -12 16 2 10 14 -5 15 -1
7 28 -13 44 -13 44 11 17 17 -21 19 -21 10 -3 -7 15 -6 28 4 47 7 14 10 28 7
32 -4 3 1 3 11 -1 22 -8 22 5 0 22 -17 13 -17 14 1 7 13 -4 17 -3 12 5 -3 6
-2 14 4 17 6 4 9 1 8 -6 -2 -6 4 -14 12 -16 9 -3 11 -1 5 4 -14 12 -17 33 -6
47 6 7 6 17 1 26 -16 25 -11 35 6 14 8 -10 13 -14 10 -7 -4 6 2 17 11 23 16
10 16 11 1 6 -10 -3 -20 -1 -23 4 -4 6 1 10 9 10 8 0 18 5 21 11 4 6 1 9 -7 7
-7 -2 -14 2 -16 7 -1 6 7 10 17 9 19 -1 22 11 8 33 -4 6 -2 15 4 19 8 5 9 3 4
-7 -7 -12 -6 -12 6 0 11 10 11 15 2 18 -7 3 -13 9 -13 14 0 6 5 7 10 4 9 -6
14 8 11 28 0 4 4 7 10 7 7 0 10 14 7 35 -4 32 -2 34 17 29 18 -6 18 -4 -4 15
-13 11 -19 21 -13 21 6 0 9 8 7 19 -3 14 1 18 16 14 11 -3 19 0 19 6 0 7 -4
10 -9 6 -5 -3 -13 0 -17 6 -4 7 -3 9 3 6 6 -4 19 5 28 19 9 15 12 23 6 20 -6
-4 -11 0 -11 8 0 9 6 16 13 16 9 0 9 2 0 8 -10 6 -11 30 -3 52 1 3 2 8 1 12 0
4 5 5 13 2 8 -3 17 0 22 7 4 8 3 10 -4 5 -7 -4 -12 -2 -12 4 0 6 -4 8 -10 5
-16 -10 -11 1 7 16 11 9 14 10 9 2 -5 -9 -2 -11 9 -6 9 3 13 9 8 12 -12 8 -25
44 -14 37 5 -3 12 1 15 10 3 8 2 13 -3 10 -14 -9 -23 26 -11 38 8 8 9 6 5 -6
-4 -10 -3 -18 2 -18 5 0 9 9 10 20 1 11 -2 20 -7 20 -4 0 -7 8 -5 18 2 9 4 19
4 22 1 3 6 -2 11 -10 7 -11 8 -9 6 11 -1 13 -6 30 -10 37 -9 15 15 12 26 -3 5
-6 8 -6 8 2 0 7 -8 16 -17 22 -15 8 -16 12 -4 23 12 11 13 11 6 -1 -5 -9 -4
-12 3 -7 18 11 14 26 -5 27 -14 0 -13 2 5 9 23 10 29 25 12 35 -6 4 -7 -1 -4
-12 5 -14 4 -15 -4 -4 -6 9 -7 23 -2 37 5 12 6 25 2 30 -4 4 -1 4 6 0 10 -6
12 -1 9 23 -3 18 -1 29 4 25 5 -3 7 -9 4 -14 -3 -5 -2 -11 3 -14 4 -2 8 6 8
20 0 15 -7 26 -20 30 -17 6 -18 7 -2 16 9 5 13 14 10 20 -4 7 -2 8 5 4 9 -6 9
-11 0 -22 -8 -10 -8 -14 0 -14 10 0 15 14 12 34 -1 4 4 14 10 22 7 8 7 14 1
14 -14 0 -22 39 -10 47 6 3 8 1 4 -5 -3 -6 -2 -13 3 -16 12 -8 8 13 -7 41 -10
18 -9 25 4 37 8 9 11 16 6 16 -15 0 -23 28 -10 36 6 4 8 3 4 -4 -3 -6 -3 -13
2 -16 4 -2 8 11 8 29 0 18 -3 32 -6 30 -3 -2 -6 7 -6 21 0 13 4 24 9 24 4 0 5
5 2 10 -4 6 -11 7 -17 4 -7 -4 -8 -2 -4 5 4 6 12 9 17 6 5 -4 9 -2 9 4 0 5 -5
11 -11 13 -9 3 -9 10 1 27 10 19 10 25 -1 32 -10 6 -9 12 5 28 17 19 17 21 2
27 -9 3 -16 10 -16 16 0 5 5 6 12 2 7 -4 8 -3 4 5 -4 6 -10 23 -12 38 -5 24
-3 25 12 12 16 -13 16 -12 4 11 -8 14 -13 31 -11 39 1 8 -2 10 -10 5 -8 -4
-10 -3 -5 5 6 9 11 9 22 0 12 -10 13 -9 8 5 -3 9 -11 16 -18 16 -6 0 -4 5 4
10 13 9 13 11 0 20 -14 9 -7 14 13 11 5 -1 6 3 2 9 -3 6 -11 8 -16 5 -5 -4 -9
-1 -9 4 0 6 5 11 10 11 6 0 10 5 10 11 0 5 -4 8 -9 4 -10 -6 -8 17 5 49 5 12
4 17 -2 13 -6 -3 -10 9 -9 31 1 22 6 36 13 35 6 -2 9 4 6 12 -4 8 -9 13 -13
11 -4 -3 -7 22 -7 54 0 32 4 56 8 54 13 -8 9 11 -4 25 -10 11 -10 13 0 7 15
-9 16 10 1 19 -7 5 -4 14 7 26 16 18 17 19 1 13 -13 -5 -16 -2 -10 12 5 13 3
15 -7 9 -9 -5 -11 -4 -6 4 6 9 11 9 22 0 12 -10 13 -9 8 5 -3 9 -11 16 -18 16
-6 0 -4 5 4 11 12 8 12 12 2 16 -10 4 -10 8 0 21 7 9 8 13 3 10 -6 -4 -12 2
-12 13 -2 18 0 19 14 7 15 -12 15 -11 3 12 -8 14 -13 31 -11 39 1 8 -2 10 -10
5 -8 -4 -10 -3 -5 5 6 9 11 9 22 0 12 -10 13 -9 8 5 -3 9 -11 16 -18 16 -6 0
-4 5 4 10 13 9 13 11 0 20 -14 9 -7 14 13 11 5 -1 6 3 2 9 -3 6 -11 8 -16 5
-5 -4 -9 -1 -9 4 0 6 5 11 10 11 6 0 10 5 10 11 0 5 -4 8 -9 4 -10 -6 -8 17 5
49 6 16 4 18 -12 13 -18 -7 -18 -6 -1 7 18 14 24 32 8 21 -5 -3 -13 0 -17 6
-4 7 -3 9 4 5 6 -3 13 -2 17 4 3 5 1 10 -5 10 -6 0 -8 5 -5 10 4 6 11 8 16 5
5 -3 6 1 3 9 -3 9 -9 14 -13 12 -4 -3 -7 13 -7 35 0 21 3 39 8 39 4 0 8 5 8
11 0 5 -4 8 -9 4 -6 -3 -8 4 -6 16 3 13 -1 30 -8 38 -11 14 -10 14 6 2 20 -15
23 -2 5 18 -10 11 -10 13 0 7 14 -8 17 10 2 19 -5 3 -6 13 -3 22 5 12 3 14 -7
8 -9 -5 -11 -4 -6 4 6 9 11 9 22 0 12 -10 13 -9 8 5 -3 9 -11 16 -18 16 -6 0
-4 5 4 10 13 9 13 11 0 20 -13 9 -13 10 0 10 9 0 11 3 4 8 -12 8 -14 53 -2 46
4 -3 8 -1 8 5 0 5 -6 11 -12 14 -10 3 -8 10 5 25 18 19 18 21 1 30 -15 9 -16
13 -5 26 7 9 9 16 3 16 -5 0 -9 11 -8 24 0 13 4 22 9 19 4 -2 7 0 7 6 0 5 -6
11 -12 14 -10 3 -8 10 6 25 17 20 17 22 2 28 -9 3 -16 10 -16 16 0 5 5 6 12 2
7 -4 8 -3 4 5 -4 6 -10 23 -12 38 -5 24 -3 25 12 12 16 -13 16 -12 7 6 -6 11
-9 28 -7 38 2 14 -2 17 -14 13 -13 -5 -12 -2 2 9 13 10 15 15 6 15 -9 0 -8 5
6 16 10 8 13 12 5 8 -11 -5 -13 -3 -8 9 4 10 1 17 -6 17 -8 0 -6 4 3 10 11 7
11 10 2 10 -7 0 -10 5 -7 10 5 8 12 7 23 -2 15 -12 16 -11 3 4 -7 10 -17 15
-22 12 -5 -3 -9 0 -9 5 0 6 4 11 8 11 4 0 8 9 9 20 1 13 -2 18 -10 13 -7 -4
-5 2 3 12 9 11 10 16 3 11 -8 -4 -13 -1 -13 9 0 10 5 13 13 9 8 -5 8 -2 -2 9
-14 18 -26 24 -17 8 3 -5 -3 -11 -14 -14 -12 -3 -20 0 -20 8 0 17 -28 27 -36
13 -4 -6 -3 -8 4 -4 6 3 14 1 18 -5 5 -9 -1 -10 -20 -5 -18 4 -25 3 -21 -3 3
-7 0 -8 -9 -5 -18 7 -22 25 -5 22 6 -2 14 4 16 12 3 9 1 11 -4 5 -12 -15 -57
-19 -48 -5 6 9 2 9 -13 1 -12 -6 -24 -16 -27 -22 -9 -13 -35 8 -35 29 0 13 -3
12 -16 -4 -10 -12 -14 -14 -11 -4 4 12 -3 15 -27 15 -17 -1 -37 -4 -44 -9 -7
-4 -12 -4 -12 0 0 3 -8 0 -17 -7 -16 -13 -17 -12 -4 4 13 16 12 17 -10 9 -13
-4 -35 -7 -49 -5 -14 2 -34 4 -45 4 -19 0 -19 1 -2 14 12 8 14 15 8 20 -6 3
-11 1 -11 -5 0 -7 -7 -10 -14 -7 -10 4 -13 1 -9 -9 3 -7 0 -14 -6 -14 -6 0
-11 6 -11 14 0 8 -9 14 -19 13 -11 0 -17 -5 -15 -9 3 -5 10 -5 16 -2 7 4 8 2
4 -5 -6 -8 -12 -9 -20 -2 -7 6 -16 8 -20 4 -4 -4 -4 1 0 12 7 18 6 18 -9 6
-12 -9 -17 -10 -17 -2 0 7 -4 10 -9 6 -6 -3 -14 3 -20 12 -7 12 -10 13 -11 4
0 -10 -10 -12 -37 -7 -21 3 -44 7 -50 8 -7 1 -13 5 -13 10 0 5 -10 6 -22 3
-17 -6 -20 -4 -15 9 5 13 3 15 -11 7 -10 -5 -24 -6 -32 -1 -7 4 -18 6 -25 4
-6 -3 -21 7 -33 21 -22 25 -44 26 -38 2 1 -7 1 -9 -1 -4 -3 4 -10 4 -16 0 -6
-4 -8 0 -4 10 3 9 1 19 -5 23 -6 4 -8 3 -5 -3 8 -12 -20 -26 -34 -17 -5 3 -7
11 -3 17 3 7 -1 4 -9 -5 -20 -25 -30 -22 -16 3 8 15 8 19 0 15 -6 -4 -11 -3
-11 1 0 14 -44 13 -52 0 -5 -7 -8 -3 -9 13 0 14 -3 19 -6 13 -2 -7 -9 -13 -15
-13 -6 0 -7 8 -4 17 4 10 4 14 0 10 -4 -4 -13 -2 -21 4 -7 6 -13 8 -13 4 0 -5
-8 -1 -18 8 -15 14 -19 15 -19 2 0 -8 5 -11 10 -8 6 3 7 1 3 -5 -4 -7 -2 -12
5 -12 7 0 9 -3 6 -6 -4 -4 -13 -2 -20 4 -8 7 -18 8 -22 4 -5 -4 -5 1 -2 10 3
10 1 20 -5 24 -6 4 -8 3 -5 -3 4 -6 -2 -13 -12 -16 -13 -3 -23 3 -32 19 -8 17
-16 21 -23 14 -5 -5 -15 -10 -20 -10 -6 0 -4 5 4 10 10 6 11 10 3 10 -7 0 -13
7 -13 15 0 8 -6 16 -12 17 -37 4 -44 4 -53 -1 -18 -10 -35 -10 -29 0 3 5 10 6
16 3 7 -4 8 -2 4 4 -5 9 -13 9 -27 2 -16 -9 -21 -7 -30 12 -10 23 -49 46 -87
53 -9 1 -16 7 -15 11 1 5 -13 9 -30 9 -26 0 -31 4 -29 19 2 10 -1 15 -6 12 -6
-3 -12 -3 -15 1 -2 5 -2 2 -1 -4 4 -17 -4 -16 -23 2 -8 8 -19 12 -25 9 -7 -4
-8 -2 -4 4 7 11 -6 17 -27 13 -5 -1 -5 3 -2 9 5 8 14 6 29 -4 19 -12 23 -12
23 0 0 8 -3 12 -5 9 -3 -3 -16 2 -30 11 -13 9 -21 11 -18 5 4 -6 1 -11 -7 -11
-8 0 -18 7 -21 16 -5 13 -9 14 -21 4 -13 -11 -14 -10 -9 5 6 14 4 16 -7 9 -22
-14 -36 -13 -36 2 0 11 4 11 16 2 10 -8 9 -4 -3 9 -16 19 -36 23 -36 7 0 -3 5
-2 12 2 7 4 8 3 4 -5 -4 -6 -12 -9 -17 -5 -5 3 -7 10 -4 15 4 5 1 17 -5 26
-10 15 -11 15 -6 1 3 -11 -1 -15 -12 -13 -9 2 -21 4 -26 4 -4 1 -6 8 -3 16 4
8 1 17 -5 21 -7 4 -8 3 -4 -4 4 -7 1 -12 -9 -12 -9 0 -14 4 -11 9 3 5 -1 12
-10 15 -10 4 -13 2 -9 -7 4 -6 0 -4 -8 6 -8 10 -17 14 -19 10 -3 -4 -4 -3 -2
4 1 6 -4 19 -12 30 -11 14 -13 15 -8 2 3 -10 0 -20 -7 -25 -7 -4 -10 -3 -6 3
4 6 0 18 -7 28 -10 14 -15 15 -21 5 -5 -9 -4 -11 3 -6 7 4 12 2 12 -4 0 -7 -6
-10 -12 -7 -7 2 -12 11 -10 21 3 19 -33 23 -42 4 -3 -7 -3 -2 0 11 5 18 3 22
-7 15 -12 -6 -12 -5 -1 8 10 13 10 17 -4 22 -22 9 -31 7 -16 -3 11 -7 11 -9
-2 -14 -9 -4 -15 -1 -13 5 1 7 -3 12 -10 13 -6 0 -15 4 -20 9 -5 5 -3 6 5 2 6
-4 12 -3 12 3 0 6 8 8 18 4 9 -3 14 -3 10 1 -5 7 -34 13 -75 18 -9 1 -10 5 -2
14 8 9 5 11 -9 7 -14 -3 -21 2 -25 18 -5 19 -8 20 -22 9 -9 -7 -15 -9 -14 -4
5 26 -1 36 -15 25 -10 -9 -16 -8 -26 4 -7 8 -16 12 -21 9 -5 -3 -6 2 -3 10 6
16 -19 49 -30 39 -3 -3 2 -12 12 -20 15 -13 15 -13 -6 -3 -19 9 -21 14 -11 32
6 11 7 18 1 14 -5 -3 -15 1 -22 9 -6 7 -17 12 -24 9 -8 -3 -20 2 -29 10 -8 8
-18 12 -21 8 -4 -3 -4 2 0 12 6 15 4 17 -6 11 -9 -6 -11 -4 -5 5 5 9 14 4 32
-16 l25 -29 -23 33 c-17 26 -27 33 -45 29 -16 -3 -24 0 -24 9 0 8 5 14 10 14
6 0 10 5 10 12 0 9 -3 9 -12 0 -17 -17 -31 -15 -25 3 5 12 1 12 -21 4 -26 -10
-26 -10 -8 10 17 19 17 21 2 27 -9 3 -25 4 -37 1 -15 -4 -19 -1 -16 11 2 9 9
16 16 14 7 -1 10 2 6 8 -8 12 -12 13 -19 1z m-66 -30 c0 -5 -7 -12 -16 -15
-14 -5 -15 -4 -4 9 14 17 20 19 20 6z m120 -15 c0 -2 -7 -7 -16 -10 -8 -3 -12
-2 -9 4 6 10 25 14 25 6z m-195 -52 c-9 -9 -19 -13 -23 -10 -3 4 0 11 8 16 24
15 33 11 15 -6z m-93 -71 c-6 -2 -9 -10 -6 -15 4 -7 2 -8 -5 -4 -6 4 -14 0
-17 -8 -3 -9 -10 -13 -15 -10 -5 3 -9 0 -9 -6 0 -6 -5 -8 -10 -5 -11 7 46 53
65 53 6 0 4 -2 -3 -5z m447 -26 c8 -10 7 -14 -2 -14 -8 0 -14 6 -14 14 0 7 1
13 2 13 2 0 8 -6 14 -13z m148 -129 c-3 -8 -6 -5 -6 6 -1 11 2 17 5 13 3 -3 4
-12 1 -19z m-1179 -252 c-7 -8 -15 -12 -17 -11 -5 6 10 25 20 25 5 0 4 -6 -3
-14z m1013 -159 c-6 -6 -16 -5 -28 3 -17 11 -17 11 1 6 14 -5 17 -2 12 10 -5
14 -4 15 9 4 10 -8 12 -17 6 -23z m-2831 17 c0 -8 -19 -13 -24 -6 -3 5 1 9 9
9 8 0 15 -2 15 -3z m3734 -33 c4 -5 -3 -7 -14 -4 -23 6 -26 13 -6 13 8 0 17
-4 20 -9z m30 -27 c3 -8 2 -12 -4 -9 -6 3 -10 10 -10 16 0 14 7 11 14 -7z
m-3544 -59 c0 -5 -5 -3 -10 5 -5 8 -10 20 -10 25 0 6 5 3 10 -5 5 -8 10 -19
10 -25z m3678 17 c2 -6 -6 -10 -16 -9 -12 1 -18 6 -15 14 6 16 25 13 31 -5z
m-2663 -42 c-3 -5 -12 -10 -18 -10 -7 0 -6 4 3 10 19 12 23 12 15 0z m2851
-46 c1 -9 0 -13 -4 -10 -3 4 -7 14 -8 22 -1 9 0 13 4 10 3 -4 7 -14 8 -22z
m-1086 12 c0 -2 -6 -9 -14 -15 -11 -9 -16 -9 -22 0 -4 7 -3 9 4 5 6 -3 13 -2
17 4 6 10 15 14 15 6z m-2535 -26 c3 -5 1 -10 -4 -10 -6 0 -11 5 -11 10 0 6 2
10 4 10 3 0 8 -4 11 -10z m3705 -11 c0 -5 5 -7 12 -3 7 4 8 3 4 -5 -6 -9 -11
-9 -22 0 -17 14 -18 19 -4 19 6 0 10 -5 10 -11z m-3603 -44 c0 -8 -4 -12 -9
-9 -4 3 -8 9 -8 15 0 5 4 9 8 9 5 0 9 -7 9 -15z m2510 -30 c8 -9 13 -18 11
-21 -3 -2 -13 5 -23 16 -21 23 -11 27 12 5z m-2377 -18 c0 -7 -4 -6 -10 3 -8
12 -10 12 -10 1 0 -8 -3 -12 -6 -8 -9 9 6 28 17 22 5 -4 9 -12 9 -18z m30 9
c0 -3 -4 -8 -10 -11 -5 -3 -10 -1 -10 4 0 6 5 11 10 11 6 0 10 -2 10 -4z
m-1054 -15 c-4 -5 -1 -11 6 -13 7 -3 3 -7 -10 -10 -19 -5 -20 -4 -11 13 5 10
12 19 15 19 3 0 3 -4 0 -9z m3550 -50 c-4 -5 0 -11 6 -14 7 -3 3 -4 -9 -4 -17
1 -19 4 -11 14 12 15 22 18 14 4z m-3201 -31 c3 -5 1 -10 -4 -10 -6 0 -11 5
-11 10 0 6 2 10 4 10 3 0 8 -4 11 -10z m125 -35 c0 -2 -9 -3 -19 -2 -11 0 -18
5 -15 9 4 6 34 0 34 -7z m3297 -22 c0 -9 -4 -10 -14 -2 -7 6 -13 12 -13 14 0
1 6 2 13 2 8 0 14 -6 14 -14z m51 -28 c-3 -3 -9 2 -12 12 -6 14 -5 15 5 6 7
-7 10 -15 7 -18z m167 -15 c-3 -5 -12 -10 -18 -10 -7 0 -6 4 3 10 19 12 23 12
15 0z m183 -84 c1 -15 -1 -17 -7 -7 -5 7 -15 17 -22 22 -10 6 -8 8 7 7 12 -1
21 -10 22 -22z m-3330 -19 c14 4 14 3 2 -5 -16 -12 -30 -7 -29 11 0 9 2 9 5 0
3 -7 13 -9 22 -6z m2097 -67 c-3 -5 -12 -10 -18 -10 -7 0 -6 4 3 10 19 12 23
12 15 0z m-3038 -45 c0 -8 -4 -12 -9 -9 -5 3 -6 10 -3 15 9 13 12 11 12 -6z
m1167 -1 c3 -8 2 -12 -4 -9 -6 3 -10 10 -10 16 0 14 7 11 14 -7z m64 -29 c-3
-3 -9 2 -12 12 -6 14 -5 15 5 6 7 -7 10 -15 7 -18z m3239 19 c-3 -3 -12 -4
-19 -1 -8 3 -5 6 6 6 11 1 17 -2 13 -5z m-4237 -184 c0 -5 -2 -10 -4 -10 -3 0
-8 5 -11 10 -3 6 -1 10 4 10 6 0 11 -4 11 -10z m1400 -32 c0 -6 -6 -5 -15 2
-8 7 -15 14 -15 16 0 2 7 1 15 -2 8 -4 15 -11 15 -16z m160 -54 c0 -8 -19 -13
-24 -6 -3 5 1 9 9 9 8 0 15 -2 15 -3z m573 -189 c-7 -21 -12 -19 -10 4 0 11 5
18 9 15 4 -3 5 -11 1 -19z m-89 -53 c3 -5 -1 -9 -9 -9 -8 0 -12 4 -9 9 3 4 7
8 9 8 2 0 6 -4 9 -8z m-2229 -72 c3 -6 -1 -7 -9 -4 -18 7 -21 14 -7 14 6 0 13
-4 16 -10z m4692 4 c-3 -3 -12 -4 -19 -1 -8 3 -5 6 6 6 11 1 17 -2 13 -5z
m-603 -165 c-3 -5 -10 -7 -15 -3 -5 3 -7 10 -3 15 3 5 10 7 15 3 5 -3 7 -10 3
-15z m-44 -9 c0 -5 -5 -10 -11 -10 -5 0 -7 5 -4 10 3 6 8 10 11 10 2 0 4 -4 4
-10z m335 -10 c3 -5 1 -10 -4 -10 -6 0 -11 5 -11 10 0 6 2 10 4 10 3 0 8 -4
11 -10z m-4147 -25 c-3 -3 -9 2 -12 12 -6 14 -5 15 5 6 7 -7 10 -15 7 -18z
m3706 -56 c-3 -5 -10 -7 -15 -3 -5 3 -7 10 -3 15 3 5 10 7 15 3 5 -3 7 -10 3
-15z m551 12 c3 -5 2 -12 -3 -15 -5 -3 -9 1 -9 9 0 17 3 19 12 6z m-4328 -121
c1 -11 -2 -22 -6 -24 -6 -4 -7 26 -2 42 3 8 7 -1 8 -18z m133 -4 c0 -3 -4 -8
-10 -11 -5 -3 -10 -1 -10 4 0 6 5 11 10 11 6 0 10 -2 10 -4z m4394 -18 c-3 -5
-9 -6 -14 -3 -5 3 -15 -4 -23 -15 -7 -11 -17 -17 -20 -13 -9 8 28 40 47 40 8
0 13 -4 10 -9z m-4369 -28 c3 -5 1 -10 -4 -10 -6 0 -11 5 -11 10 0 6 2 10 4
10 3 0 8 -4 11 -10z m38 -85 c4 -8 3 -16 -1 -19 -4 -3 -9 4 -9 15 -2 23 3 25
10 4z m41 -83 c3 -5 -1 -9 -9 -9 -8 0 -12 4 -9 9 3 4 7 8 9 8 2 0 6 -4 9 -8z
m3416 -327 c7 -9 8 -15 2 -15 -5 0 -12 7 -16 15 -3 8 -4 15 -2 15 2 0 9 -7 16
-15z m225 -404 c-3 -6 3 -14 12 -20 12 -7 13 -10 4 -11 -11 0 -11 -3 0 -17 13
-16 12 -17 -3 -4 -10 7 -16 17 -13 21 3 5 1 11 -5 15 -10 6 -5 25 6 25 3 0 3
-4 -1 -9z m1523 -119 c2 -7 -1 -12 -8 -12 -6 0 -9 4 -6 9 4 5 1 12 -4 14 -6 3
-5 4 2 3 6 -1 14 -8 16 -14z m-1395 -189 c-4 -10 -9 -11 -19 -2 -18 15 -18 15
5 15 11 0 17 -5 14 -13z m52 -242 c3 -5 2 -12 -3 -15 -5 -3 -9 1 -9 9 0 17 3
19 12 6z m16 -258 c-10 -4 -10 -7 -1 -13 9 -5 8 -9 -3 -13 -13 -5 -16 5 -8 31
1 1 7 2 14 1 8 0 8 -2 -2 -6z m-10 -166 c-10 -9 -11 -8 -5 6 3 10 9 15 12 12
3 -3 0 -11 -7 -18z m-37 -393 c3 -8 2 -12 -4 -9 -6 3 -10 10 -10 16 0 14 7 11
14 -7z m1039 -31 c-3 -7 -8 -13 -12 -13 -4 0 -8 6 -8 13 0 8 6 14 13 14 7 0
10 -6 7 -14z m-33 -73 c-8 -5 -11 -10 -7 -10 5 0 5 -5 2 -10 -4 -6 -11 -8 -16
-4 -12 7 8 34 25 34 6 0 4 -5 -4 -10z m-1207 -515 c4 -8 3 -16 -1 -19 -4 -3
-9 4 -9 15 -2 23 3 25 10 4z m741 -314 c3 -4 -4 -17 -15 -27 -18 -16 -19 -16
-13 -1 3 9 10 17 16 17 5 0 6 5 3 10 -3 6 -4 10 -1 10 3 0 7 -4 10 -9z m-1004
-245 c0 -2 -7 -7 -16 -10 -8 -3 -12 -2 -9 4 6 10 25 14 25 6z m473 -407 c-9
-9 -12 -7 -10 9 1 14 5 18 11 12 7 -7 6 -14 -1 -21z m-2462 -262 c-10 -9 -11
-8 -5 6 3 10 9 15 12 12 3 -3 0 -11 -7 -18z m1762 -338 c-8 -8 -13 -7 -18 2
-6 8 -4 10 5 4 10 -6 12 -4 6 11 -6 15 -5 17 5 7 9 -10 10 -16 2 -24z m-667
-4 c-9 -9 -16 -13 -16 -8 0 12 22 34 28 28 2 -2 -3 -11 -12 -20z m634 -11 c0
-8 -19 -13 -24 -6 -3 5 1 9 9 9 8 0 15 -2 15 -3z m-692 -28 c-7 -8 -15 -12
-17 -11 -5 6 10 25 20 25 5 0 4 -6 -3 -14z m-1130 -31 c-3 -3 -9 2 -12 12 -6
14 -5 15 5 6 7 -7 10 -15 7 -18z m1742 -10 c0 -12 -19 -12 -23 0 -4 9 -1 12 9
8 7 -3 14 -7 14 -8z m-1468 -22 c16 -19 21 -56 6 -47 -5 3 -6 10 -3 15 7 10
-12 33 -35 42 -13 4 -12 6 1 6 9 1 23 -7 31 -16z m1263 -102 c3 -5 1 -12 -5
-16 -5 -3 -10 1 -10 9 0 18 6 21 15 7z m-322 -196 c-3 -9 -8 -14 -10 -11 -3 3
-2 9 2 15 9 16 15 13 8 -4z m-1058 -17 c5 4 5 1 1 -6 -6 -10 -11 -10 -22 -1
-8 6 -14 14 -14 16 0 3 6 0 13 -6 8 -6 18 -7 22 -3z m70 -78 c-3 -5 -12 -10
-18 -10 -7 0 -6 4 3 10 19 12 23 12 15 0z"/>
<path d="M4360 7436 c0 -2 7 -9 15 -16 9 -7 15 -8 15 -2 0 5 -7 12 -15 16 -8
3 -15 4 -15 2z"/>
<path d="M5065 7000 c-2 -3 5 -6 15 -7 11 -1 22 2 24 5 3 4 -4 8 -15 8 -11 0
-22 -3 -24 -6z"/>
<path d="M2926 6963 c-6 -14 -5 -15 5 -6 7 7 10 15 7 18 -3 3 -9 -2 -12 -12z"/>
<path d="M4303 6915 c0 -8 4 -15 9 -15 4 0 8 4 8 9 0 6 -4 12 -8 15 -5 3 -9
-1 -9 -9z"/>
<path d="M5230 6909 c0 -5 5 -7 10 -4 6 3 10 8 10 11 0 2 -4 4 -10 4 -5 0 -10
-5 -10 -11z"/>
<path d="M4233 6878 c-2 -18 0 -20 7 -8 12 18 13 30 2 30 -4 0 -9 -10 -9 -22z"/>
<path d="M5407 6839 c7 -7 15 -10 18 -7 3 3 -2 9 -12 12 -14 6 -15 5 -6 -5z"/>
<path d="M4376 6812 c-3 -5 1 -9 9 -9 8 0 12 4 9 9 -3 4 -7 8 -9 8 -2 0 -6 -4
-9 -8z"/>
<path d="M2440 6770 c8 -5 12 -10 8 -11 -27 -5 -35 -4 -48 5 -12 8 -13 8 -3
-4 18 -20 39 -20 57 -1 14 15 13 17 -7 18 -17 2 -19 0 -7 -7z"/>
<path d="M5784 6728 c4 -19 23 -20 30 -2 5 14 4 15 -8 5 -10 -8 -16 -9 -19 -1
-3 6 -4 5 -3 -2z"/>
<path d="M5948 6683 c6 -2 18 -2 25 0 6 3 1 5 -13 5 -14 0 -19 -2 -12 -5z"/>
<path d="M4163 6642 c2 -12 9 -28 17 -35 10 -10 11 -9 4 3 -5 8 -9 21 -10 28
-2 8 -5 17 -8 20 -4 3 -5 -4 -3 -16z"/>
<path d="M6200 6641 c0 -6 4 -13 10 -16 6 -3 7 1 4 9 -7 18 -14 21 -14 7z"/>
<path d="M6236 6637 c3 -10 9 -15 12 -12 3 3 0 11 -7 18 -10 9 -11 8 -5 -6z"/>
<path d="M6434 6623 c4 -7 2 -13 -4 -13 -6 0 -8 -5 -4 -11 4 -8 9 -8 17 0 8 8
7 14 -2 24 -11 10 -13 10 -7 0z"/>
<path d="M4558 6613 c7 -3 16 -2 19 1 4 3 -2 6 -13 5 -11 0 -14 -3 -6 -6z"/>
<path d="M1050 6530 c0 -5 5 -10 11 -10 5 0 7 5 4 10 -3 6 -8 10 -11 10 -2 0
-4 -4 -4 -10z"/>
<path d="M4979 6473 c-13 -16 -12 -17 4 -4 16 13 21 21 13 21 -2 0 -10 -8 -17
-17z"/>
<path d="M4195 6470 c-3 -5 -1 -10 4 -10 6 0 11 5 11 10 0 6 -2 10 -4 10 -3 0
-8 -4 -11 -10z"/>
<path d="M4206 6342 c-3 -5 1 -9 9 -9 8 0 12 4 9 9 -3 4 -7 8 -9 8 -2 0 -6 -4
-9 -8z"/>
<path d="M995 6330 c3 -5 8 -10 11 -10 2 0 4 5 4 10 0 6 -5 10 -11 10 -5 0 -7
-4 -4 -10z"/>
<path d="M1305 6311 c-3 -5 0 -13 6 -17 7 -4 9 -3 5 4 -3 5 0 13 6 15 9 4 10
6 1 6 -6 1 -14 -3 -18 -8z"/>
<path d="M4139 6315 c-5 -4 -39 -12 -61 -14 -5 -1 -8 -6 -8 -12 0 -8 4 -8 14
0 11 9 15 9 19 -1 4 -10 6 -10 6 0 1 6 7 12 15 12 8 0 18 5 21 10 6 10 2 14
-6 5z"/>
<path d="M2141 6264 c0 -11 3 -14 6 -6 3 7 2 16 -1 19 -3 4 -6 -2 -5 -13z"/>
<path d="M2310 6192 c11 -22 31 -22 29 1 0 8 -2 8 -6 -1 -4 -10 -9 -9 -20 5
-13 17 -13 16 -3 -5z"/>
<path d="M1553 6194 c3 -4 1 -16 -5 -27 -8 -16 -7 -23 8 -35 18 -14 18 -14 -2
-10 -17 4 -20 2 -17 -13 3 -9 10 -16 16 -15 7 2 9 1 5 -1 -13 -7 -9 -53 4 -53
6 0 8 -3 5 -7 -4 -3 -17 2 -29 13 l-23 19 19 -22 c11 -13 16 -23 11 -23 -4 0
-1 -8 6 -17 10 -11 10 -14 2 -9 -8 4 -13 1 -13 -8 0 -10 6 -13 18 -10 10 4 13
2 7 -3 -5 -4 -10 -15 -10 -23 0 -8 5 -18 10 -22 6 -5 5 -8 -4 -8 -9 0 -11 -8
-7 -25 5 -18 2 -27 -9 -31 -8 -4 -15 -10 -15 -16 0 -5 5 -6 12 -2 8 5 9 0 6
-14 -4 -12 -2 -20 2 -17 5 3 12 0 16 -6 4 -8 3 -9 -4 -5 -8 5 -12 0 -12 -13 0
-10 3 -21 8 -24 4 -2 2 -3 -3 -1 -6 1 -11 -9 -11 -21 0 -13 4 -21 8 -19 5 3 5
10 2 16 -4 6 -2 8 4 4 6 -3 10 -15 9 -26 -1 -10 -5 -16 -9 -14 -17 10 -7 -16
10 -26 16 -11 16 -11 0 -6 -10 3 -18 1 -18 -4 0 -6 6 -10 13 -10 8 0 7 -4 -3
-10 -13 -8 -13 -10 2 -10 9 0 20 -4 23 -10 3 -5 0 -7 -8 -4 -18 6 -32 -12 -17
-21 6 -4 8 -10 5 -15 -3 -5 -1 -11 4 -15 6 -3 8 3 6 14 -3 14 1 18 12 14 12
-5 12 -7 1 -14 -7 -5 -9 -9 -4 -9 5 0 3 -6 -3 -14 -9 -11 -9 -16 0 -22 7 -4 9
-3 6 3 -3 5 0 10 7 10 11 0 11 -5 0 -25 -17 -33 -8 -54 20 -47 21 6 21 6 1 -7
-11 -7 -21 -19 -23 -27 -3 -12 -1 -12 14 0 15 13 16 12 9 -10 -5 -17 -4 -22 6
-18 8 2 13 10 11 16 -1 7 3 9 9 6 8 -5 8 -10 0 -18 -15 -15 -14 -30 1 -21 7 4
8 3 4 -5 -6 -9 -11 -9 -22 0 -12 10 -13 9 -8 -5 3 -9 10 -16 16 -16 5 0 6 -4
3 -10 -3 -5 -1 -10 5 -10 6 0 8 -4 5 -10 -3 -5 -1 -10 4 -10 6 0 11 -5 11 -11
0 -5 -4 -8 -9 -4 -5 3 -13 0 -17 -6 -4 -7 -3 -9 4 -5 6 3 13 2 17 -4 4 -6 10
-8 14 -6 3 3 7 -4 7 -14 0 -10 -5 -16 -10 -13 -5 4 -7 -1 -3 -11 4 -10 7 -20
7 -22 0 -2 8 -4 18 -5 14 0 14 -2 -3 -9 -11 -5 -14 -9 -7 -9 8 -1 10 -6 6 -13
-6 -10 -5 -10 8 0 13 10 18 9 29 -5 9 -11 10 -14 2 -9 -8 4 -13 2 -13 -4 0 -6
-6 -8 -12 -5 -7 4 -3 -2 9 -13 17 -15 19 -22 10 -32 -9 -10 -9 -11 1 -6 6 4
12 2 12 -4 0 -6 5 -8 11 -4 7 4 10 1 7 -7 -3 -8 2 -20 11 -27 15 -12 15 -13 0
-9 -9 3 -16 -1 -16 -8 0 -13 14 -14 34 -2 6 4 15 2 19 -4 4 -7 3 -10 -2 -6 -5
3 -18 -1 -29 -9 -19 -14 -19 -15 8 -10 23 4 27 2 17 -9 -9 -11 -7 -16 8 -24
11 -6 23 -7 27 -3 4 4 3 -3 -4 -15 -15 -30 -14 -38 4 -23 9 7 18 10 22 6 3 -3
1 -6 -4 -6 -20 0 -7 -31 22 -56 15 -13 31 -24 34 -24 3 0 -7 12 -22 25 -15 14
-24 25 -19 25 5 0 23 -13 40 -30 21 -19 26 -30 17 -30 -8 0 -15 -5 -15 -11 0
-5 4 -8 9 -5 13 8 42 -4 35 -15 -3 -5 2 -9 10 -9 9 0 16 -5 16 -11 0 -5 6 -7
13 -3 7 5 6 0 -3 -11 -14 -17 -13 -18 4 -12 16 6 17 5 6 -8 -11 -13 -10 -14 4
-9 11 4 26 -4 46 -24 15 -17 26 -32 24 -35 -3 -3 3 -4 13 -4 10 1 17 -4 15
-11 -1 -8 2 -11 7 -7 6 3 8 13 5 23 -5 15 -5 15 6 -1 6 -9 8 -22 4 -29 -4 -6
-3 -8 4 -4 6 3 13 2 17 -3 3 -6 13 -7 22 -4 10 4 14 2 9 -5 -3 -6 -1 -14 5
-18 8 -4 9 -3 5 4 -4 7 -2 12 3 12 6 0 11 -7 11 -15 0 -8 5 -15 11 -15 5 0 7
4 4 10 -3 6 1 7 9 4 9 -3 13 -10 10 -15 -3 -5 6 -9 20 -9 14 0 28 -5 32 -12 4
-6 3 -8 -4 -4 -6 3 -13 2 -16 -3 -4 -6 7 -8 24 -6 18 3 28 0 25 -5 -9 -14 9
-12 22 1 9 9 10 7 6 -10 -3 -13 -1 -21 6 -21 7 0 9 -5 5 -12 -4 -7 -3 -8 5 -4
7 5 9 13 4 20 -4 7 0 3 10 -7 16 -19 17 -19 18 -1 0 18 1 17 8 -1 5 -11 7 -23
5 -27 -3 -4 0 -10 6 -13 6 -4 9 -1 8 7 -2 7 7 14 20 16 12 2 22 -1 22 -7 0 -6
-8 -8 -17 -5 -15 5 -15 4 -3 -4 10 -8 18 -8 27 0 11 8 12 7 7 -8 -4 -10 -3
-16 1 -11 5 4 17 -1 27 -10 16 -14 22 -15 40 -4 11 7 18 8 14 3 -3 -5 2 -18
10 -28 12 -14 14 -15 11 -3 -3 9 1 16 9 16 8 0 14 -4 14 -9 0 -5 4 -6 10 -3 6
3 7 -1 3 -10 -5 -13 -7 -14 -14 -3 -5 8 -9 9 -9 2 0 -6 7 -17 15 -24 14 -12
19 -7 16 15 -1 6 5 2 12 -7 8 -10 19 -18 25 -18 7 0 9 -7 5 -17 -4 -11 -3 -14
6 -9 6 4 19 2 28 -6 12 -9 15 -9 9 -1 -5 9 -2 11 10 6 13 -5 15 -3 10 8 -4 8
4 1 19 -15 19 -21 29 -26 35 -17 5 10 9 9 13 -4 5 -10 3 -14 -5 -9 -7 4 -8 3
-4 -4 4 -6 13 -8 22 -5 17 6 57 -30 46 -43 -4 -4 -1 -4 6 0 9 6 10 11 3 20 -8
9 -7 13 4 13 7 0 14 -3 13 -6 -2 -19 4 -30 18 -35 13 -5 14 -3 6 7 -8 10 -6
13 8 13 10 0 17 -3 15 -6 -2 -4 5 -12 15 -20 10 -8 17 -17 14 -22 -3 -4 2 -5
11 -2 14 6 14 8 -2 21 -17 13 -16 13 3 4 12 -6 25 -7 30 -3 5 4 6 3 2 -2 -10
-12 10 -47 25 -45 7 1 19 1 27 0 13 -1 13 -2 0 -11 -9 -6 -10 -10 -3 -10 6 0
15 5 19 11 5 8 10 7 16 -4 5 -9 15 -14 23 -11 14 6 20 -7 15 -31 -1 -5 4 -4
11 3 16 15 39 16 39 1 0 -5 -4 -7 -10 -4 -15 9 -12 -1 4 -14 11 -9 16 -9 22 0
5 8 3 9 -6 4 -9 -5 -11 -4 -6 3 10 16 14 15 27 -9 7 -13 7 -19 1 -15 -6 3 -13
2 -16 -3 -7 -11 13 -9 33 3 10 7 12 6 6 -4 -6 -9 -4 -12 7 -8 8 4 21 2 29 -4
11 -8 11 -9 -3 -4 -10 3 -20 1 -22 -3 -9 -15 5 -20 30 -11 17 7 22 6 18 -4 -3
-7 3 -19 13 -27 16 -13 17 -12 5 2 -10 14 -9 17 8 22 11 3 23 0 27 -5 4 -7 1
-8 -7 -3 -8 5 -11 4 -6 -3 4 -6 13 -9 21 -6 10 4 13 0 10 -16 -3 -16 -1 -19 8
-11 8 6 18 6 27 1 8 -5 19 -6 25 -2 5 3 4 -2 -4 -11 -8 -10 -11 -20 -7 -24 3
-3 6 -1 6 6 0 7 5 9 10 6 6 -4 8 -11 5 -16 -3 -5 1 -6 9 -3 9 3 16 11 16 18 0
6 4 5 9 -3 5 -8 7 -21 4 -30 -4 -11 -1 -10 9 3 15 18 44 14 33 -5 -4 -5 3 -9
15 -9 24 0 53 -24 42 -35 -4 -5 -1 -4 7 0 11 6 13 4 7 -10 -7 -18 -6 -18 13
-1 14 13 21 14 27 5 5 -8 3 -10 -7 -5 -8 4 -2 -4 13 -17 15 -14 24 -29 20 -33
-4 -5 4 0 17 11 14 11 21 14 16 6 -6 -11 -4 -13 10 -7 16 6 16 4 4 -11 -8 -9
-9 -14 -2 -10 6 4 19 0 27 -9 14 -14 31 -21 59 -23 5 -1 5 -6 1 -12 -4 -7 2
-9 17 -7 17 2 24 -3 29 -22 l7 -25 5 25 5 25 2 -27 c1 -34 17 -44 30 -21 10
17 10 17 11 1 0 -20 11 -23 26 -8 6 6 15 6 24 0 10 -7 11 -10 3 -10 -7 0 -13
-5 -13 -11 0 -6 7 -8 16 -5 15 6 15 4 3 -10 -13 -16 -12 -16 7 -6 18 10 25 8
40 -11 19 -22 19 -22 -2 -4 -17 14 -21 14 -21 2 0 -8 4 -12 8 -9 4 2 11 -1 14
-7 4 -5 13 -8 20 -5 8 3 16 0 19 -7 3 -9 7 -8 14 2 8 11 11 9 17 -8 3 -11 10
-21 14 -21 5 0 20 -11 33 -25 14 -14 32 -24 39 -22 8 2 11 2 7 0 -5 -3 -8 -9
-8 -14 0 -6 5 -7 10 -4 6 3 10 1 10 -5 0 -6 5 -8 10 -5 6 3 10 1 10 -4 0 -6
-5 -11 -12 -11 -6 0 -8 -3 -5 -6 4 -4 13 -1 22 6 12 10 15 9 16 -6 1 -11 1
-22 1 -25 -1 -3 6 -6 14 -6 10 0 11 4 4 11 -5 5 -10 14 -10 19 0 5 9 -2 21
-17 11 -14 24 -24 29 -21 5 3 11 1 14 -4 4 -5 2 -12 -3 -15 -5 -4 -12 -2 -16
4 -3 5 -12 10 -18 10 -7 0 -3 -7 7 -15 10 -8 23 -12 27 -9 5 3 9 0 9 -5 0 -6
9 -11 20 -11 12 0 20 -6 18 -13 -2 -7 0 -12 3 -12 4 0 17 -9 29 -20 18 -16 23
-17 30 -5 6 10 10 11 10 3 0 -7 -8 -17 -17 -22 -23 -13 -8 -14 16 -1 14 7 26
1 57 -32 21 -22 33 -38 27 -34 -9 5 -11 2 -7 -9 5 -12 9 -13 20 -4 11 9 14 9
14 0 0 -7 5 -9 11 -5 8 5 8 1 0 -13 -8 -17 -6 -24 16 -44 14 -13 23 -19 19
-12 -3 6 -1 15 5 19 8 5 10 -3 7 -24 -4 -25 -2 -29 9 -21 9 8 13 8 13 1 0 -6
9 -14 20 -17 17 -5 18 -10 9 -27 -6 -11 -8 -22 -5 -26 3 -3 6 0 6 6 0 7 7 12
15 12 8 0 15 -5 15 -11 0 -5 -5 -7 -12 -3 -7 4 -8 3 -4 -4 4 -6 13 -9 21 -5
18 6 20 -13 3 -21 -7 -3 -3 -3 10 0 15 4 24 0 28 -10 3 -9 11 -13 17 -9 6 3 7
1 3 -6 -4 -6 -11 -9 -15 -7 -4 3 -8 -1 -8 -10 0 -10 7 -12 21 -8 18 6 19 5 8
-8 -10 -13 -10 -17 4 -22 9 -3 19 -4 24 -1 4 3 6 -5 3 -17 -4 -19 -3 -20 6 -8
6 8 11 10 11 4 0 -5 -6 -16 -12 -23 -11 -11 -10 -12 1 -6 11 6 13 4 8 -9 -4
-11 2 -24 18 -38 20 -18 23 -24 12 -37 -9 -12 -9 -13 1 -7 11 7 17 -11 13 -37
-1 -5 3 -6 9 -2 6 3 7 12 4 18 -4 7 -3 8 2 4 5 -5 9 -14 9 -20 0 -7 5 -12 12
-12 6 0 15 -4 20 -9 5 -6 2 -6 -6 -1 -11 6 -13 4 -8 -8 4 -11 2 -14 -9 -10 -7
3 -14 0 -14 -7 0 -6 4 -9 8 -6 13 8 35 -11 27 -24 -6 -9 -9 -9 -16 1 -5 8 -9
9 -9 3 0 -19 13 -24 28 -11 13 10 14 8 8 -13 -6 -21 -5 -22 4 -7 6 9 10 25 9
35 -3 29 1 43 9 38 4 -2 9 5 9 17 2 15 0 18 -6 9 -7 -11 -10 -10 -14 3 -4 9
-3 13 3 10 15 -10 30 28 18 49 -7 12 -7 17 0 12 5 -3 13 1 16 10 3 8 2 13 -2
10 -5 -3 -9 1 -9 8 0 8 7 12 15 8 11 -4 10 2 -4 24 -11 15 -14 25 -8 21 6 -3
19 2 28 12 13 15 14 18 1 18 -8 0 -12 -3 -10 -7 2 -4 -2 -7 -10 -7 -13 0 -13
2 -1 16 11 12 12 21 4 36 -11 20 -11 20 13 0 13 -11 18 -13 11 -4 -6 9 -9 19
-5 22 3 4 1 7 -5 7 -7 0 -12 5 -12 11 0 6 7 8 17 5 10 -4 14 -4 10 0 -4 4 -2
13 4 20 7 9 4 17 -13 28 -21 15 -13 22 17 16 6 -1 6 2 2 7 -5 4 -14 8 -20 8
-5 0 -12 6 -15 14 -3 8 0 11 7 7 6 -4 11 -3 11 3 0 5 -6 12 -12 14 -10 4 -10
6 0 6 16 1 16 28 0 34 -10 4 -9 6 1 6 11 1 11 4 1 16 -9 11 -10 18 -1 28 6 8
8 17 4 20 -10 11 -12 56 -2 62 5 4 9 11 9 16 0 6 -4 8 -8 5 -4 -2 -9 5 -9 17
-2 17 0 19 7 7 8 -13 10 -13 10 2 0 9 -6 19 -12 21 -10 4 -10 6 0 6 6 1 12 6
12 12 0 5 -4 8 -9 5 -11 -7 -9 13 2 32 5 7 3 12 -5 12 -9 0 -9 3 2 10 13 9 13
10 0 10 -13 0 -13 1 0 10 10 6 11 10 3 10 -7 0 -13 5 -13 11 0 5 6 7 13 3 6
-4 2 4 -11 18 -19 21 -20 27 -9 36 8 7 16 11 18 9 2 -1 2 0 1 3 -2 3 -9 5 -15
5 -7 0 -12 15 -12 35 0 26 -5 37 -20 43 -20 8 -20 9 -1 23 18 12 15 18 -6 15
-4 0 -5 6 -2 14 4 8 11 15 17 15 6 0 8 3 4 6 -3 3 -12 2 -19 -2 -19 -12 -39
-14 -32 -3 3 5 10 7 15 4 14 -9 11 11 -4 24 -8 6 -18 7 -23 3 -4 -4 -2 1 6 11
14 19 22 80 9 72 -4 -3 -10 2 -13 11 -8 22 -8 26 4 19 5 -3 7 0 4 9 -3 8 -12
17 -20 20 -9 3 -12 10 -9 16 3 5 1 10 -4 10 -6 0 -11 5 -11 11 0 5 4 8 8 5 5
-3 9 1 9 9 0 8 -4 12 -9 9 -4 -3 -8 0 -8 7 0 9 -3 9 -14 0 -11 -9 -16 -9 -22
0 -4 7 -3 9 3 6 6 -4 16 0 22 7 9 11 8 17 -7 28 -10 7 -22 20 -27 28 -7 12 -6
13 6 3 12 -10 15 -8 15 7 0 10 -4 16 -8 14 -4 -3 -8 0 -8 6 0 6 -5 8 -12 4 -8
-5 -9 -2 -5 9 3 10 2 17 -4 17 -6 0 -7 5 -3 12 5 8 2 9 -9 5 -19 -7 -32 8 -16
19 8 5 9 3 4 -6 -5 -9 -4 -11 4 -6 15 10 3 29 -14 22 -8 -3 -19 3 -27 12 -9
11 -10 14 0 8 7 -4 12 -1 12 9 0 9 -4 13 -10 10 -6 -3 -7 1 -4 9 3 9 9 14 13
11 4 -2 8 2 8 10 0 12 -4 12 -20 -2 -19 -17 -19 -17 -13 4 6 18 4 22 -8 17
-11 -4 -16 0 -16 11 0 9 5 13 10 10 16 -10 11 1 -7 16 -9 8 -14 9 -11 4 4 -6
3 -17 -3 -25 -7 -12 -9 -11 -9 6 0 13 -8 24 -20 27 -11 3 -20 11 -20 19 0 10
3 9 10 -2 8 -13 10 -12 10 4 0 14 -5 17 -21 13 -16 -4 -18 -3 -8 9 9 11 9 14
0 14 -7 0 -9 5 -5 12 4 6 3 8 -4 4 -13 -8 -44 22 -36 36 4 5 -4 4 -17 -2 -20
-10 -22 -10 -11 1 17 19 15 29 -5 22 -16 -6 -17 -5 -3 12 8 10 10 16 4 12 -6
-4 -22 2 -34 13 -13 11 -27 20 -33 20 -5 0 -3 8 4 17 12 14 12 16 0 8 -11 -6
-13 -4 -8 9 6 14 4 15 -15 5 -17 -9 -20 -9 -15 3 4 11 -2 15 -21 14 -22 -1
-27 3 -26 22 1 18 -1 20 -12 11 -11 -9 -14 -6 -15 17 0 25 -1 26 -9 9 -7 -15
-9 -16 -9 -4 -1 9 -9 23 -18 30 -11 10 -14 10 -9 2 4 -8 1 -13 -9 -13 -9 0
-13 5 -10 10 3 6 1 10 -4 10 -6 0 -11 10 -12 23 0 12 -3 16 -6 10 -2 -7 -9
-13 -14 -13 -4 0 -6 7 -3 15 5 11 2 13 -12 8 -12 -4 -15 -3 -10 5 7 11 -6 17
-27 13 -5 -1 -6 3 -2 9 6 9 -8 14 -28 11 -5 -1 -5 4 -1 10 5 8 2 10 -8 7 -9
-4 -31 8 -55 31 -31 29 -47 38 -72 36 -22 -1 -29 1 -21 9 17 17 11 30 -7 15
-11 -10 -14 -10 -9 -1 4 7 1 12 -9 12 -10 0 -13 5 -9 12 4 6 3 8 -3 5 -11 -7
-37 16 -28 24 2 3 -4 5 -14 5 -11 0 -17 -6 -14 -13 3 -7 10 -11 15 -10 6 1 12
-4 13 -11 2 -7 1 -8 -2 -2 -2 5 -9 8 -14 4 -5 -3 -14 6 -21 20 -14 31 -28 34
-23 5 3 -12 1 -18 -3 -15 -4 4 -7 11 -8 14 0 4 -6 18 -12 32 l-11 25 -1 -25
c-1 -23 -2 -23 -9 -5 -5 11 -6 25 -3 30 3 6 -1 5 -9 -2 -11 -9 -18 -8 -31 1
-10 7 -15 16 -11 19 8 8 -16 37 -31 37 -7 0 -7 -3 -1 -8 14 -10 18 -42 5 -42
-5 0 -9 3 -8 8 4 11 -28 53 -35 45 -4 -3 -1 -13 6 -21 9 -12 6 -12 -14 1 -14
10 -29 14 -34 10 -4 -5 -5 -3 -1 4 4 7 14 10 24 7 13 -5 14 -4 3 4 -7 5 -9 12
-5 14 5 3 3 3 -5 1 -7 -2 -21 2 -30 9 -14 12 -14 11 -2 -4 7 -10 11 -18 7 -18
-3 0 -16 15 -27 33 -16 25 -20 27 -16 9 3 -12 1 -20 -4 -16 -5 3 -9 11 -9 18
0 8 -8 20 -17 27 -11 10 -14 10 -9 2 4 -8 1 -13 -9 -13 -10 0 -13 5 -9 13 5 7
0 6 -11 -3 -17 -14 -18 -13 -12 4 6 14 4 17 -9 12 -12 -4 -15 -2 -11 9 4 8 1
17 -5 21 -7 4 -8 3 -4 -4 4 -7 2 -12 -4 -12 -6 0 -8 -5 -4 -12 4 -6 3 -8 -4
-5 -5 4 -8 17 -5 30 4 19 3 20 -7 5 -6 -10 -16 -18 -22 -18 -7 0 -6 5 1 14 17
20 -25 45 -43 25 -8 -9 -8 -10 1 -5 7 4 21 3 30 -3 15 -8 12 -9 -12 -6 -16 2
-32 4 -35 5 -3 2 -8 2 -13 1 -4 0 -6 2 -6 6 3 21 -2 43 -11 43 -5 0 -7 -6 -4
-14 3 -8 1 -17 -4 -20 -5 -3 -9 2 -8 10 0 9 -7 18 -17 20 -19 3 -48 34 -42 45
2 3 -2 6 -10 6 -8 0 -11 -5 -8 -10 11 -17 -21 6 -35 25 -10 13 -17 16 -26 9
-8 -7 -16 -3 -26 12 -8 12 -13 25 -13 28 1 4 -6 6 -15 6 -43 0 -53 3 -46 16 6
10 4 10 -7 0 -16 -16 -29 -17 -29 -2 0 5 5 7 10 4 6 -3 10 -1 10 5 0 7 -6 10
-14 7 -7 -3 -19 0 -26 6 -8 8 -11 8 -7 1 4 -7 -2 -11 -16 -10 -16 1 -21 7 -19
21 3 16 2 17 -12 6 -14 -12 -16 -11 -10 3 5 12 2 15 -12 9 -12 -5 -15 -3 -9 6
5 10 2 11 -12 7 -11 -3 -27 1 -39 10 -10 8 -13 12 -5 8 9 -5 12 -3 7 4 -5 9
-13 9 -29 0 -20 -10 -21 -10 -8 5 14 18 12 19 -31 19 -15 1 -25 5 -22 10 3 4
10 6 15 3 5 -4 9 -2 9 3 0 6 -7 13 -16 16 -8 3 -12 2 -9 -4 3 -6 2 -10 -4 -10
-5 0 -12 6 -14 13 -4 9 -8 9 -15 -2 -8 -11 -11 -9 -17 8 -3 11 -11 21 -16 21
-6 0 -8 4 -4 9 3 6 -3 9 -12 9 -27 -2 -73 11 -73 21 0 5 10 7 23 5 20 -4 20
-4 2 5 -12 5 -25 5 -32 -1 -9 -7 -13 -7 -13 1 0 6 -5 11 -11 11 -7 0 -18 8
-25 18 -13 16 -14 16 -8 -3 l5 -20 -13 20 c-14 21 -30 28 -63 27 -19 -1 -19 0
-2 13 10 7 14 16 8 19 -5 3 -12 0 -14 -6 -4 -10 -8 -9 -16 2 -6 8 -11 11 -11
6 0 -5 -6 -4 -12 2 -7 6 -17 10 -21 10 -5 0 -12 4 -15 8 -4 4 -1 4 6 0 6 -4
12 -3 12 2 0 6 -7 13 -16 16 -8 3 -12 2 -9 -4 3 -6 1 -10 -4 -10 -6 0 -11 4
-11 10 0 5 -6 9 -12 7 -7 -1 -12 5 -10 13 2 8 0 11 -5 7 -4 -5 -9 -13 -9 -18
-1 -5 -2 -12 -3 -15 -2 -11 -31 18 -31 30 0 6 5 4 10 -4 5 -8 10 -10 10 -4 0
18 -13 24 -27 12 -11 -9 -15 -7 -20 11 -4 17 -8 19 -14 9 -7 -10 -9 -9 -9 5 0
9 -7 18 -15 18 -29 3 -33 4 -42 13 -5 5 -3 6 4 2 9 -5 11 -2 6 10 -4 11 -8 13
-11 6 -6 -19 -30 -14 -44 8 -17 26 -28 26 -23 -1 3 -12 3 -20 1 -18 -3 2 -4 7
-3 10 1 3 -4 13 -12 23 -11 13 -16 14 -25 3 -6 -7 -10 -10 -9 -8 2 2 -3 11
-10 19 -8 11 -8 14 0 9 6 -4 15 -3 18 3 4 6 3 10 -2 9 -4 -1 -22 2 -40 6 -23
5 -30 12 -26 24 4 13 3 13 -5 2 -11 -15 -42 -24 -41 -13 4 26 -2 35 -13 24
-17 -17 -33 -15 -18 3 7 9 10 18 6 22 -3 3 -6 2 -6 -4 0 -5 -7 -10 -15 -10
-11 0 -12 4 -4 13 7 8 6 14 -2 20 -8 4 -9 3 -5 -4 4 -7 3 -12 -3 -12 -5 0 -13
5 -16 10 -3 6 -19 8 -36 5 -21 -4 -29 -1 -29 10 0 13 -11 19 -32 16 -4 0 -10
9 -13 20 -7 20 -7 20 -22 2 -13 -17 -14 -16 -10 10 3 22 2 25 -9 16 -11 -9
-14 -8 -14 1 0 9 -4 9 -13 2 -8 -7 -18 -6 -31 4 -11 8 -16 14 -11 14 21 0 -17
23 -41 26 -15 2 -32 10 -36 19 -5 8 -13 13 -19 10 -5 -4 -9 -1 -9 6 0 8 -5 7
-17 -2 -14 -12 -16 -12 -8 0 6 11 4 13 -8 8 -11 -4 -14 -2 -10 9 3 7 -1 14 -8
14 -7 0 -9 -3 -6 -6z m152 -73 c3 -5 1 -12 -5 -16 -5 -3 -10 1 -10 9 0 18 6
21 15 7z m-135 -271 c0 -5 -2 -10 -4 -10 -3 0 -8 5 -11 10 -3 6 -1 10 4 10 6
0 11 -4 11 -10z m1095 -240 c3 -5 1 -10 -4 -10 -6 0 -11 5 -11 10 0 6 2 10 4
10 3 0 8 -4 11 -10z m479 -219 c14 -15 15 -21 4 -27 -7 -4 -10 -4 -6 0 9 11
-14 36 -26 28 -5 -3 -6 0 -2 6 9 15 10 15 30 -7z m-1469 -21 c3 -6 -1 -7 -9
-4 -18 7 -21 14 -7 14 6 0 13 -4 16 -10z m1533 -25 c-3 -3 -9 2 -12 12 -6 14
-5 15 5 6 7 -7 10 -15 7 -18z m835 -448 c3 -8 -1 -14 -8 -14 -7 0 -11 6 -8 14
3 7 6 13 8 13 2 0 5 -6 8 -13z m-1899 -193 c3 -8 2 -12 -4 -9 -6 3 -10 10 -10
16 0 14 7 11 14 -7z m366 -185 c0 -6 -4 -7 -10 -4 -5 3 -10 11 -10 16 0 6 5 7
10 4 6 -3 10 -11 10 -16z m511 -242 c-13 -13 -26 -3 -16 12 3 6 11 8 17 5 6
-4 6 -10 -1 -17z m89 -21 c0 -2 -7 -7 -16 -10 -8 -3 -12 -2 -9 4 6 10 25 14
25 6z m40 -20 c0 -2 -7 -7 -16 -10 -8 -3 -12 -2 -9 4 6 10 25 14 25 6z m1625
-96 c3 -6 -1 -7 -9 -4 -18 7 -21 14 -7 14 6 0 13 -4 16 -10z m-1135 -180 c8
-5 12 -11 9 -14 -3 -3 -14 1 -25 9 -21 16 -8 20 16 5z m714 -476 c3 -8 2 -12
-4 -9 -6 3 -10 10 -10 16 0 14 7 11 14 -7z m176 -158 c-7 -7 -13 -7 -20 0 -6
6 -3 10 10 10 13 0 16 -4 10 -10z m405 -118 c4 -3 2 -9 -3 -12 -5 -3 -15 1
-21 8 -10 11 -9 14 3 12 9 -1 18 -5 21 -8z m-168 -183 c0 -8 -4 -12 -9 -9 -5
3 -6 10 -3 15 9 13 12 11 12 -6z m123 -71 c0 -8 -19 -13 -24 -6 -3 5 1 9 9 9
8 0 15 -2 15 -3z"/>
<path d="M3814 6192 c4 -3 14 -7 22 -8 9 -1 13 0 10 4 -4 3 -14 7 -22 8 -9 1
-13 0 -10 -4z"/>
<path d="M1730 6111 c0 -5 5 -13 10 -16 6 -3 10 -2 10 4 0 5 -4 13 -10 16 -5
3 -10 2 -10 -4z"/>
<path d="M1275 6069 c-4 -6 -5 -12 -2 -15 2 -3 7 2 10 11 7 17 1 20 -8 4z"/>
<path d="M1893 6043 c-17 -6 -17 -20 0 -20 8 0 14 6 14 14 0 7 -1 13 -1 12 -1
0 -7 -3 -13 -6z"/>
<path d="M1256 6003 c-6 -14 -5 -15 5 -6 7 7 10 15 7 18 -3 3 -9 -2 -12 -12z"/>
<path d="M2025 5971 c-3 -5 -2 -12 3 -15 5 -3 9 1 9 9 0 17 -3 19 -12 6z"/>
<path d="M1535 5950 c-3 -5 -1 -10 4 -10 6 0 11 5 11 10 0 6 -2 10 -4 10 -3 0
-8 -4 -11 -10z"/>
<path d="M3487 5935 c3 -8 9 -12 14 -9 12 7 11 11 -5 17 -10 4 -13 1 -9 -8z"/>
<path d="M1535 5919 c-4 -6 -5 -12 -2 -15 2 -3 7 2 10 11 7 17 1 20 -8 4z"/>
<path d="M2196 5891 c-4 -5 -2 -12 3 -15 5 -4 12 -2 15 3 4 5 2 12 -3 15 -5 4
-12 2 -15 -3z"/>
<path d="M988 5863 c7 -3 16 -2 19 1 4 3 -2 6 -13 5 -11 0 -14 -3 -6 -6z"/>
<path d="M3086 5823 c-6 -14 -5 -15 5 -6 7 7 10 15 7 18 -3 3 -9 -2 -12 -12z"/>
<path d="M993 5816 c0 -6 9 -13 19 -13 10 -1 18 0 18 2 0 2 -8 9 -18 14 -14 7
-19 6 -19 -3z"/>
<path d="M1000 5782 c0 -6 5 -14 10 -17 6 -4 7 -11 4 -17 -4 -7 -2 -8 5 -4 9
6 9 12 -1 24 -7 10 -14 19 -15 21 -2 2 -3 -1 -3 -7z"/>
<path d="M1237 5753 c-3 -5 4 -15 16 -23 21 -12 21 -12 7 6 -8 10 -15 20 -16
22 -1 2 -4 -1 -7 -5z"/>
<path d="M5700 5710 c6 -11 13 -20 16 -20 2 0 0 9 -6 20 -6 11 -13 20 -16 20
-2 0 0 -9 6 -20z"/>
<path d="M2756 5612 c-2 -4 -1 -14 4 -22 7 -11 9 -9 7 8 -1 24 -3 26 -11 14z"/>
<path d="M5776 5562 c-3 -6 -1 -14 5 -17 15 -10 25 3 12 16 -7 7 -13 7 -17 1z"/>
<path d="M1106 5475 c4 -8 11 -15 16 -15 6 0 5 6 -2 15 -7 8 -14 15 -16 15 -2
0 -1 -7 2 -15z"/>
<path d="M2995 5460 c-3 -5 -1 -10 4 -10 6 0 11 5 11 10 0 6 -2 10 -4 10 -3 0
-8 -4 -11 -10z"/>
<path d="M3281 5334 c-1 -6 5 -17 12 -23 10 -8 14 -7 14 4 0 8 -4 12 -8 9 -4
-2 -10 2 -12 8 -4 8 -6 9 -6 2z"/>
<path d="M4819 5153 c-13 -16 -12 -17 4 -4 9 7 17 15 17 17 0 8 -8 3 -21 -13z"/>
<path d="M6640 5091 c0 -6 4 -13 10 -16 6 -3 7 1 4 9 -7 18 -14 21 -14 7z"/>
<path d="M4084 4881 c20 -22 26 -25 26 -13 0 4 -10 13 -22 21 -23 14 -23 14
-4 -8z"/>
<path d="M4350 4696 c0 -2 7 -7 16 -10 8 -3 12 -2 9 4 -6 10 -25 14 -25 6z"/>
<path d="M1644 4629 c-9 -15 12 -17 30 -4 17 13 17 14 -4 12 -12 -1 -24 -5
-26 -8z"/>
<path d="M1665 4609 c-4 -6 -13 -8 -19 -6 -7 3 -13 -1 -13 -9 0 -9 6 -13 14
-10 8 3 11 1 8 -5 -4 -5 -1 -18 6 -27 12 -15 12 -15 -7 1 -17 14 -21 15 -21 2
0 -8 5 -15 11 -16 6 0 2 -4 -9 -9 -17 -7 -17 -9 -2 -9 23 -1 22 -17 -4 -35
l-21 -14 22 -12 c15 -8 19 -15 11 -24 -7 -8 -7 -17 -1 -24 6 -7 2 -5 -8 3 -15
14 -15 17 -2 25 9 6 10 10 3 10 -21 0 -24 -19 -8 -51 9 -17 12 -28 7 -25 -6 4
-13 2 -17 -4 -3 -5 -1 -10 6 -10 7 0 9 -3 6 -7 -4 -3 -2 -12 5 -20 6 -8 7 -13
2 -11 -5 2 -10 -1 -11 -7 -2 -5 1 -10 6 -10 5 0 13 -3 17 -7 8 -9 -31 -2 -49
8 -9 6 -9 4 1 -8 7 -9 9 -18 3 -20 -5 -1 -2 -10 7 -18 14 -13 15 -12 9 3 -3 9
-2 17 4 17 10 0 6 -53 -7 -84 -5 -14 -4 -17 4 -12 8 5 10 2 6 -8 -3 -9 -10
-13 -15 -10 -5 3 -6 -2 -3 -10 4 -10 1 -16 -7 -16 -8 0 -5 -6 7 -15 10 -8 15
-15 11 -15 -5 0 -1 -7 7 -16 9 -8 14 -19 11 -24 -3 -5 -2 -10 2 -13 5 -2 2 -2
-4 -1 -18 5 -16 -6 5 -23 9 -8 11 -12 5 -8 -8 4 -13 0 -13 -9 0 -9 6 -16 13
-16 8 0 7 -4 -3 -10 -13 -8 -13 -10 -1 -10 11 0 10 -4 -5 -16 -10 -8 -13 -13
-6 -9 20 10 38 -6 21 -19 -8 -6 -14 -27 -14 -47 -1 -36 13 -44 44 -24 10 6 10
1 -2 -16 -18 -25 -23 -44 -9 -35 4 2 9 -5 9 -17 2 -17 0 -18 -7 -7 -7 12 -9
10 -8 -7 2 -14 7 -19 18 -15 13 5 13 3 2 -11 -15 -17 -8 -38 11 -36 9 0 9 2 0
6 -7 2 -13 9 -13 15 0 6 6 6 15 -2 8 -6 20 -9 27 -5 7 4 2 -3 -12 -15 -14 -12
-19 -19 -12 -15 6 3 12 1 12 -5 0 -7 7 -10 14 -7 10 4 13 1 9 -8 -3 -8 -9 -12
-14 -9 -5 3 -9 0 -9 -5 0 -10 14 -15 33 -12 5 1 6 -3 3 -8 -4 -5 -2 -13 4 -16
8 -5 7 -11 -1 -21 -11 -13 -6 -18 16 -15 6 1 2 -5 -7 -12 -19 -15 -25 -32 -7
-22 6 4 13 -2 16 -14 5 -20 14 -25 38 -22 6 1 1 -6 -10 -15 -19 -16 -19 -16 9
-10 26 6 27 6 12 -9 -14 -15 -14 -35 0 -35 3 0 2 5 -1 10 -3 6 -1 10 6 10 6 0
9 -8 6 -20 -6 -23 3 -26 22 -7 10 10 11 8 5 -7 -6 -15 -4 -17 7 -11 11 7 11 5
-1 -10 -14 -17 -13 -17 10 -10 21 7 23 6 12 -7 -10 -13 -9 -18 5 -29 9 -8 14
-9 10 -2 -4 6 -3 15 3 18 6 4 10 3 9 -2 -4 -21 2 -44 10 -39 5 3 11 -1 14 -9
4 -10 1 -12 -11 -9 -14 5 -15 4 -2 -4 10 -8 19 -7 29 1 12 9 13 9 7 0 -4 -7
-3 -13 3 -13 11 0 9 -19 -4 -40 -8 -13 -7 -13 8 -1 14 11 18 11 23 -2 3 -9 12
-18 20 -21 8 -3 12 -2 9 3 -3 5 -1 13 5 16 6 4 10 3 9 -2 -3 -20 2 -34 11 -28
6 3 10 1 10 -5 0 -6 5 -8 13 -4 8 5 7 2 -2 -9 -12 -15 -12 -17 4 -11 13 6 16
4 10 -5 -6 -10 -2 -11 15 -6 19 6 20 5 11 -12 -8 -16 -7 -19 10 -18 11 1 25 8
30 16 8 10 8 7 4 -10 -6 -18 -4 -22 6 -15 23 14 44 15 30 1 -16 -16 -14 -30 4
-23 8 3 21 -1 29 -9 16 -16 30 -20 22 -7 -3 5 1 9 8 9 8 0 12 -6 9 -14 -3 -7
2 -16 11 -19 9 -3 13 -11 9 -17 -3 -5 -1 -7 5 -3 6 3 14 2 17 -4 5 -8 11 -8
20 0 9 8 14 6 19 -5 3 -9 2 -13 -3 -10 -5 3 -12 1 -16 -4 -3 -6 6 -8 21 -5 17
3 23 1 19 -6 -4 -6 -1 -11 6 -9 32 4 49 -2 50 -18 0 -15 2 -15 9 2 7 16 9 17
9 3 1 -9 6 -20 13 -24 8 -5 9 -2 4 11 -5 14 -4 16 7 7 8 -7 17 -9 20 -5 4 3 7
1 7 -7 0 -10 3 -10 16 1 13 11 14 9 8 -17 -6 -28 -6 -28 11 -9 9 11 14 15 10
8 -9 -18 29 -35 45 -20 10 10 11 7 5 -13 -5 -19 -4 -21 4 -10 7 10 11 11 11 3
0 -7 7 -10 15 -7 11 5 14 1 9 -12 -3 -11 -2 -15 3 -9 10 13 54 13 50 0 -1 -6
-6 -9 -10 -7 -5 1 -6 -2 -2 -8 5 -8 11 -8 21 1 7 6 11 15 8 20 -3 5 0 9 5 9 6
0 11 -5 11 -11 0 -8 4 -8 14 0 11 9 13 6 11 -14 -2 -14 1 -23 6 -19 5 3 7 10
4 15 -3 5 2 6 11 2 13 -5 15 -3 9 7 -6 9 -4 11 4 5 9 -5 10 -10 2 -18 -21 -21
-11 -30 11 -11 12 10 18 13 14 7 -4 -7 -2 -13 4 -13 6 0 9 -4 6 -8 -3 -5 1 -9
8 -9 9 0 12 7 9 16 -3 9 8 1 25 -16 30 -32 50 -44 37 -23 -4 6 7 10 25 10 21
0 29 -4 24 -12 -5 -7 -3 -8 7 -3 24 15 47 12 71 -9 13 -12 19 -17 12 -13 -13
8 -31 -10 -20 -20 3 -4 6 -1 6 7 0 10 3 10 14 1 10 -8 16 -9 21 -1 3 5 11 10
16 10 6 0 7 -4 4 -10 -3 -5 1 -10 10 -10 9 0 14 4 11 8 -3 5 1 9 9 9 8 0 12
-4 9 -8 -2 -4 -1 -9 3 -12 5 -2 3 -2 -4 -1 -7 2 -10 -3 -7 -10 3 -8 16 -11 36
-8 18 3 28 1 25 -5 -3 -5 0 -10 8 -10 8 0 15 3 15 7 0 4 7 7 15 7 13 0 13 -2
0 -17 -13 -14 -13 -17 0 -17 8 0 12 3 10 7 -3 4 15 7 39 6 25 0 42 -4 40 -7
-6 -10 16 -16 48 -15 14 1 26 -1 26 -4 -2 -21 5 -28 22 -25 11 2 23 -1 26 -7
4 -6 2 -8 -4 -4 -6 3 -13 2 -16 -3 -7 -10 20 -9 30 2 11 10 26 9 20 -2 -3 -5
1 -12 10 -15 11 -4 15 -2 11 7 -3 8 1 14 9 14 7 0 10 -5 7 -10 -4 -6 0 -8 10
-4 11 4 14 2 10 -9 -3 -7 0 -14 6 -14 6 0 11 6 11 13 0 8 3 9 8 1 12 -19 50
-35 57 -24 3 5 12 10 18 10 7 0 6 -4 -3 -10 -13 -8 -12 -10 3 -10 12 0 16 -4
11 -12 -4 -7 3 -4 16 7 l23 20 -12 -22 c-15 -30 -14 -41 2 -18 11 14 16 15 22
5 6 -9 4 -11 -5 -5 -9 5 -11 4 -6 -4 6 -9 11 -9 22 0 11 9 14 9 14 -1 0 -7 8
-10 20 -7 14 4 29 -3 47 -21 15 -15 22 -20 16 -12 -9 12 -7 15 12 15 13 0 23
-2 23 -5 -2 -22 4 -40 11 -40 6 0 8 10 6 21 -3 12 -1 18 3 15 4 -4 7 -13 7
-19 0 -7 8 -11 18 -11 9 1 15 -2 12 -6 -3 -4 2 -11 11 -14 9 -4 13 -2 8 5 -4
8 0 7 15 0 11 -7 21 -16 21 -20 0 -13 47 -20 58 -9 6 6 8 -1 7 -16 -2 -15 1
-24 6 -20 5 3 7 9 4 14 -3 4 4 6 16 3 18 -5 19 -7 5 -15 -9 -5 -16 -14 -16
-21 0 -8 3 -9 8 -1 4 6 16 14 26 17 17 7 17 6 5 -9 -13 -16 -12 -16 11 -4 24
13 24 12 10 -5 -9 -11 -10 -16 -2 -11 7 4 12 2 12 -4 0 -7 9 -9 23 -5 22 7 22
7 2 -9 -19 -16 -19 -16 7 -7 35 13 65 10 65 -6 0 -9 -4 -10 -13 -2 -15 12 -34
4 -33 -14 0 -9 2 -9 6 1 2 6 9 12 14 12 6 0 8 -4 5 -9 -4 -5 5 -8 19 -7 15 2
22 -1 18 -7 -4 -6 0 -8 10 -4 10 3 17 2 17 -4 0 -6 4 -7 10 -4 6 3 7 -1 4 -9
-7 -19 21 -22 30 -3 3 6 3 2 0 -10 -4 -17 -1 -23 11 -23 9 0 14 -4 11 -9 -3
-5 1 -12 10 -15 8 -3 13 -10 10 -15 -3 -5 3 -7 14 -4 18 5 25 -5 21 -29 0 -5
4 -8 10 -8 6 0 9 7 6 14 -4 10 -1 13 9 9 8 -3 13 -11 10 -18 -2 -6 0 -18 6
-26 8 -11 9 -10 4 4 -3 9 -1 17 4 17 6 0 10 -4 10 -9 0 -5 9 -13 20 -16 11 -3
20 -14 20 -23 0 -15 -2 -15 -11 -2 -9 13 -10 13 -6 0 2 -8 10 -14 16 -12 7 1
22 -4 34 -13 12 -8 17 -15 11 -15 -5 0 -15 5 -20 10 -7 7 -11 6 -11 -4 0 -8 3
-15 6 -14 16 1 28 -4 51 -23 14 -11 19 -18 13 -14 -9 4 -11 1 -6 -11 6 -16 7
-16 18 0 11 15 13 15 19 1 3 -9 2 -13 -4 -10 -6 3 -10 1 -10 -4 0 -6 5 -11 10
-11 6 0 10 -8 11 -17 0 -16 1 -15 8 2 7 17 8 16 15 -9 5 -19 12 -26 24 -24 9
2 16 10 14 18 -2 7 3 17 10 23 9 6 8 7 -4 3 -10 -3 -18 -1 -18 4 0 10 15 14
34 11 5 -1 4 4 -2 12 -7 8 -9 17 -5 20 3 4 1 7 -6 7 -8 0 -11 -6 -7 -17 4 -10
3 -14 -1 -9 -13 13 -11 57 2 46 13 -11 14 17 2 36 -3 6 -3 14 1 18 11 12 9 74
-3 70 -5 -2 -10 7 -10 20 0 13 3 22 8 19 4 -2 7 0 7 6 0 5 -6 12 -12 14 -8 3
-5 6 5 6 17 1 17 2 3 17 -22 21 -21 40 2 23 14 -11 15 -11 5 1 -7 8 -13 29
-13 48 0 26 -5 35 -22 40 -21 5 -21 6 -2 12 10 4 22 2 26 -4 6 -8 8 -8 8 1 0
6 -5 15 -10 18 -8 5 -8 11 -1 19 8 9 7 13 -3 13 -8 0 -13 -8 -11 -18 3 -13 -1
-16 -12 -12 -12 5 -12 7 -1 14 7 5 9 9 4 9 -5 0 -3 7 4 16 11 12 11 15 0 12
-7 -2 -15 3 -18 11 -2 8 0 11 5 8 5 -3 10 0 10 8 0 8 -4 12 -8 10 -4 -3 -9 2
-13 10 -3 8 0 17 6 21 7 5 8 2 3 -7 -5 -8 -4 -10 0 -6 16 14 13 35 -4 30 -26
-7 -47 23 -31 42 9 11 10 15 1 15 -7 0 -12 10 -11 23 3 36 1 40 -15 27 -9 -7
-18 -10 -22 -6 -3 3 -1 6 5 6 19 0 14 38 -5 43 -16 4 -15 5 1 6 20 1 20 1 0
16 -19 15 -19 15 1 9 l20 -6 -20 13 c-25 15 -35 30 -29 41 3 4 -2 8 -11 8 -9
0 -14 4 -11 9 4 5 0 12 -6 14 -10 4 -9 8 2 17 12 9 11 10 -7 5 -17 -5 -23 -2
-23 10 0 12 5 15 18 10 13 -5 14 -4 5 6 -10 10 -15 9 -28 -1 -17 -14 -21 -1
-5 18 7 9 7 9 -2 2 -18 -15 -26 -12 -30 13 -2 14 -9 21 -21 21 -9 -1 -17 5
-17 13 0 9 5 11 13 7 7 -5 7 -1 -3 12 -22 29 -24 30 -17 12 3 -10 3 -20 -2
-22 -4 -3 -8 1 -9 9 -1 8 -3 22 -4 30 -1 9 -11 15 -24 15 -18 0 -22 4 -17 17
5 12 3 14 -7 8 -10 -6 -12 -4 -6 10 6 16 4 16 -11 4 -15 -13 -16 -12 -10 10 4
18 1 24 -14 28 -10 3 -16 10 -12 16 3 6 1 7 -6 3 -6 -4 -9 -12 -6 -17 3 -5 -1
-6 -9 -3 -9 3 -16 13 -16 21 0 8 5 11 12 7 7 -4 8 -3 4 5 -6 9 -11 9 -24 -1
-13 -11 -15 -11 -10 4 9 22 -2 30 -20 15 -13 -10 -14 -9 -2 13 10 20 10 23 0
13 -8 -7 -19 -9 -29 -4 -15 9 -24 11 -37 11 -4 0 -1 6 5 13 15 19 1 30 -17 14
-13 -10 -14 -9 -7 2 6 11 4 13 -8 8 -9 -3 -19 -2 -22 4 -4 5 -11 7 -16 4 -5
-4 -17 7 -27 24 -9 16 -27 33 -39 36 -13 3 -23 10 -23 16 0 8 4 8 14 0 11 -9
16 -9 22 1 4 7 4 10 -1 6 -4 -4 -15 -3 -22 4 -11 9 -17 9 -24 -3 -7 -11 -9 -9
-9 7 0 13 -8 24 -20 27 -13 3 -18 1 -14 -6 3 -7 -1 -4 -9 6 -11 14 -16 15 -21
5 -3 -7 -5 -4 -3 7 3 15 -2 21 -17 23 -17 1 -18 -1 -6 -8 8 -5 10 -10 4 -10
-6 0 -17 7 -24 15 -7 8 -17 12 -23 8 -6 -3 -7 -1 -3 6 6 9 12 9 24 -1 12 -9
11 -6 -2 10 -12 14 -22 18 -26 12 -8 -12 -32 -10 -42 4 -4 6 -14 4 -25 -5 -16
-13 -17 -13 -4 4 14 18 40 19 54 2 5 -6 7 -4 4 5 -2 10 -15 14 -35 14 -18 -1
-30 2 -27 6 3 4 -6 11 -20 14 -14 4 -25 12 -25 19 0 8 -4 7 -10 -3 -7 -11 -10
-11 -10 -2 0 7 -5 10 -12 6 -6 -4 -8 -3 -5 2 3 6 2 16 -4 24 -7 12 -9 11 -10
-5 0 -11 -3 -14 -6 -7 -2 6 -9 12 -14 12 -6 0 -7 -6 -3 -12 5 -9 2 -9 -9 1 -9
7 -17 19 -17 27 0 7 -5 16 -11 20 -8 4 -9 0 -4 -15 4 -12 2 -21 -4 -21 -6 0
-10 6 -9 13 2 6 -3 11 -11 9 -9 -2 -11 3 -7 14 5 14 4 15 -9 4 -13 -11 -14
-10 -10 2 6 14 2 16 -45 20 -13 2 -19 7 -15 17 4 11 3 11 -9 2 -11 -9 -17 -8
-30 4 -9 9 -13 22 -9 28 4 7 -1 6 -10 -2 -14 -11 -17 -11 -18 0 -1 8 0 19 1
24 1 6 -2 7 -5 3 -4 -4 -20 -1 -36 8 -16 8 -29 12 -29 9 0 -7 -83 37 -93 49
-5 7 -7 4 -3 -6 3 -10 1 -18 -4 -18 -9 0 -14 15 -11 33 1 5 -3 6 -9 2 -6 -3
-8 -10 -5 -15 3 -5 0 -12 -7 -16 -7 -4 -10 -4 -6 0 3 4 -3 19 -14 32 -18 19
-24 21 -37 11 -9 -8 -12 -8 -8 -1 4 7 0 15 -9 18 -8 3 -12 10 -9 16 3 6 -1 7
-9 4 -9 -3 -16 -10 -16 -16 0 -5 5 -6 12 -2 7 4 8 3 4 -4 -10 -17 -26 -15 -26
2 0 16 -34 31 -50 21 -5 -3 -10 -2 -10 4 0 5 6 12 13 14 8 4 9 6 0 6 -6 1 -18
-6 -27 -14 -13 -14 -15 -13 -13 4 0 11 4 18 8 15 4 -2 10 0 13 5 7 11 -13 9
-31 -2 -7 -5 -16 1 -23 13 -8 16 -15 18 -29 11 -13 -7 -22 -5 -34 10 -10 11
-12 19 -5 19 6 0 8 3 5 6 -4 4 -13 1 -22 -6 -10 -8 -15 -9 -15 -2 0 6 -6 9
-14 6 -8 -3 -17 0 -21 5 -3 6 -11 9 -16 6 -5 -4 -9 -1 -9 5 0 6 -5 8 -12 4 -8
-5 -7 0 2 11 8 10 10 16 3 12 -6 -4 -15 -3 -18 3 -5 8 -12 7 -23 -2 -13 -11
-14 -11 -10 2 5 15 -18 39 -36 40 -6 0 -1 -7 10 -15 18 -14 18 -14 -3 -8 -13
3 -23 9 -23 13 0 5 -11 7 -25 5 -17 -1 -25 3 -25 13 0 8 -3 12 -7 9 -3 -4 -11
1 -18 10 -9 13 -14 13 -20 3 -6 -9 -4 -11 5 -5 9 5 11 4 6 -4 -6 -8 -12 -9
-20 -2 -7 6 -17 7 -21 3 -5 -4 -5 -2 -2 4 10 17 -18 25 -34 11 -7 -7 -5 -2 4
10 18 20 9 41 -12 29 -5 -4 -12 -1 -14 4 -3 6 -4 5 -3 -2 2 -7 12 -12 22 -10
16 2 16 1 4 -7 -10 -7 -19 -6 -31 5 -19 17 -33 19 -23 2 4 -7 3 -8 -5 -4 -6 4
-8 12 -5 18 5 7 1 9 -9 5 -15 -6 -22 3 -18 26 1 10 -7 9 -29 -3 -13 -7 -21 -7
-25 0 -4 6 -11 7 -17 4 -6 -4 -5 3 2 16 7 12 8 20 2 16 -5 -3 -12 0 -15 8 -4
9 -17 12 -41 9 -22 -2 -36 1 -36 7 0 6 5 8 12 4 7 -4 8 -3 4 4 -4 6 -14 8 -23
5 -12 -5 -14 -3 -8 7 6 10 4 12 -8 7 -11 -4 -17 -1 -17 8 0 9 -8 12 -21 10
-18 -4 -19 -2 -7 12 12 15 11 15 -9 5 -17 -9 -22 -9 -26 3 -4 9 -1 12 9 8 7
-3 14 0 14 5 0 6 -11 9 -25 6 -16 -3 -27 1 -31 10 -3 8 -12 12 -20 9 -10 -4
-12 0 -7 13 6 16 4 17 -9 7 -18 -16 -28 -7 -28 24 0 13 -4 22 -9 18 -5 -3 -12
-1 -15 4 -4 5 -19 8 -34 5 -15 -2 -22 -1 -17 3 17 14 11 48 -8 45 -9 -2 -17 2
-17 8 0 6 -4 8 -10 5 -5 -3 -10 -1 -10 6 0 6 -8 9 -20 6 -11 -3 -20 -1 -20 4
0 5 5 9 10 9 6 0 10 5 10 12 0 6 -3 9 -6 5 -9 -8 -44 25 -44 43 0 13 -1 13
-10 0 -8 -12 -10 -10 -8 10 2 19 -2 25 -20 26 -23 1 -45 14 -24 14 7 0 12 10
12 23 0 18 -2 19 -10 7 -8 -12 -10 -11 -10 8 0 12 -5 22 -11 22 -5 0 -8 4 -4
9 3 6 -3 15 -14 20 -25 14 -28 14 -36 0z m22 -14 c0 -8 -4 -12 -9 -9 -5 3 -6
10 -3 15 9 13 12 11 12 -6z m226 -240 c-3 -9 -8 -14 -10 -11 -3 3 -2 9 2 15 9
16 15 13 8 -4z m56 -48 c8 -10 7 -14 -2 -14 -8 0 -14 6 -14 14 0 7 1 13 2 13
2 0 8 -6 14 -13z m-335 -161 c-3 -9 -10 -16 -15 -16 -5 0 -4 9 3 20 14 22 21
20 12 -4z m630 -23 c4 -9 -1 -10 -18 -3 -13 5 -27 6 -32 2 -4 -4 -5 -2 -1 3 8
15 46 13 51 -2z m273 -149 c-3 -3 -12 -4 -19 -1 -8 3 -5 6 6 6 11 1 17 -2 13
-5z m-882 -64 c-3 -5 -1 -10 5 -10 7 0 10 -5 8 -11 -5 -14 -23 -12 -24 4 0 14
5 27 12 27 3 0 2 -4 -1 -10z m1512 -205 c0 -8 -4 -12 -9 -9 -5 3 -6 10 -3 15
9 13 12 11 12 -6z m-1379 -145 c7 -11 9 -20 4 -20 -4 0 -13 9 -20 20 -7 11 -9
20 -4 20 4 0 13 -9 20 -20z m217 -279 c-6 -5 -25 10 -25 20 0 5 6 4 14 -3 8
-7 12 -15 11 -17z m2193 -165 c-7 -8 -15 -12 -17 -11 -5 6 10 25 20 25 5 0 4
-6 -3 -14z m-1903 -6 c-3 -5 -1 -10 4 -10 6 0 11 -5 11 -11 0 -8 -5 -8 -15 1
-13 11 -12 30 1 30 3 0 2 -4 -1 -10z m350 -160 c3 -5 1 -10 -4 -10 -6 0 -11 5
-11 10 0 6 2 10 4 10 3 0 8 -4 11 -10z m242 -65 c0 -8 -4 -12 -9 -9 -5 3 -6
10 -3 15 9 13 12 11 12 -6z m-23 -10 c3 -8 1 -15 -4 -15 -6 0 -10 7 -10 15 0
8 2 15 4 15 2 0 6 -7 10 -15z m687 -212 c13 -16 12 -17 -3 -4 -17 13 -22 21
-14 21 2 0 10 -8 17 -17z m733 -359 c3 -8 2 -12 -4 -9 -6 3 -10 10 -10 16 0
14 7 11 14 -7z m313 -84 c-2 -24 -13 -26 -21 -4 -4 10 -2 13 6 8 8 -5 9 -2 5
10 -4 9 -3 15 2 11 6 -3 9 -14 8 -25z"/>
<path d="M2709 4392 c-13 -15 -12 -16 3 -4 13 10 17 10 21 0 4 -9 6 -9 6 -1 2
20 -16 24 -30 5z"/>
<path d="M1595 4390 c-3 -5 -1 -10 4 -10 6 0 11 5 11 10 0 6 -2 10 -4 10 -3 0
-8 -4 -11 -10z"/>
<path d="M1595 4340 c3 -5 8 -10 11 -10 2 0 4 5 4 10 0 6 -5 10 -11 10 -5 0
-7 -4 -4 -10z"/>
<path d="M6635 4331 c-6 -11 13 -26 22 -17 4 3 1 6 -6 6 -7 0 -9 5 -6 10 3 6
4 10 1 10 -3 0 -7 -4 -11 -9z"/>
<path d="M4686 4303 c-6 -14 -5 -15 5 -6 7 7 10 15 7 18 -3 3 -9 -2 -12 -12z"/>
<path d="M1594 4232 c3 -18 18 -20 24 -4 1 5 -4 12 -12 15 -9 4 -13 0 -12 -11z"/>
<path d="M5145 4190 c-3 -5 -1 -10 4 -10 6 0 11 5 11 10 0 6 -2 10 -4 10 -3 0
-8 -4 -11 -10z"/>
<path d="M5180 4111 c11 -8 12 -11 2 -11 -7 0 -10 -4 -7 -10 10 -16 23 -12 21
7 -2 9 -9 19 -17 21 -11 3 -11 1 1 -7z"/>
<path d="M2295 4100 c3 -5 8 -10 11 -10 2 0 4 5 4 10 0 6 -5 10 -11 10 -5 0
-7 -4 -4 -10z"/>
<path d="M1590 4096 c0 -3 9 -10 20 -16 11 -6 20 -8 20 -6 0 3 -9 10 -20 16
-11 6 -20 8 -20 6z"/>
<path d="M4816 4063 c-6 -14 -5 -15 5 -6 7 7 10 15 7 18 -3 3 -9 -2 -12 -12z"/>
<path d="M4846 3908 c3 -4 9 -8 15 -8 5 0 9 4 9 8 0 5 -7 9 -15 9 -8 0 -12 -4
-9 -9z"/>
<path d="M5236 3883 c-6 -14 -5 -15 5 -6 7 7 10 15 7 18 -3 3 -9 -2 -12 -12z"/>
<path d="M2820 3869 c0 -5 5 -7 10 -4 6 3 10 8 10 11 0 2 -4 4 -10 4 -5 0 -10
-5 -10 -11z"/>
<path d="M5253 3855 c0 -8 6 -16 14 -19 11 -4 11 -1 3 14 -13 24 -17 25 -17 5z"/>
<path d="M3890 3795 c-7 -9 -8 -15 -2 -15 5 0 12 7 16 15 3 8 4 15 2 15 -2 0
-9 -7 -16 -15z"/>
<path d="M4900 3749 c0 -5 5 -7 10 -4 6 3 10 8 10 11 0 2 -4 4 -10 4 -5 0 -10
-5 -10 -11z"/>
<path d="M4022 3707 c-8 -10 -6 -13 7 -13 11 0 17 6 14 13 -3 7 -6 13 -8 13
-1 0 -7 -6 -13 -13z"/>
<path d="M4904 3692 c4 -3 14 -7 22 -8 9 -1 13 0 10 4 -4 3 -14 7 -22 8 -9 1
-13 0 -10 -4z"/>
<path d="M4070 3672 c6 -13 14 -21 18 -18 3 4 -2 14 -12 24 -18 16 -18 16 -6
-6z"/>
<path d="M6529 3688 c-8 -27 -5 -36 9 -30 10 4 12 7 4 10 -7 2 -10 8 -6 13 3
5 3 9 0 9 -3 0 -6 -1 -7 -2z"/>
<path d="M1716 3642 c-2 -4 -1 -14 5 -22 6 -11 9 -12 9 -2 0 8 5 10 13 6 8 -5
8 -2 -2 9 -15 19 -18 20 -25 9z"/>
<path d="M3350 3641 c0 -5 5 -13 10 -16 6 -3 10 -2 10 4 0 5 -4 13 -10 16 -5
3 -10 2 -10 -4z"/>
<path d="M6490 3510 c-9 -6 -10 -10 -3 -10 6 0 15 5 18 10 8 12 4 12 -15 0z"/>
<path d="M4926 3452 c-3 -5 1 -9 9 -9 8 0 12 4 9 9 -3 4 -7 8 -9 8 -2 0 -6 -4
-9 -8z"/>
<path d="M5273 3453 c4 -3 1 -13 -6 -22 -11 -14 -10 -14 5 -2 16 12 16 31 1
31 -4 0 -3 -3 0 -7z"/>
<path d="M4390 3443 c0 -6 7 -14 16 -17 8 -3 12 -11 8 -17 -4 -7 -3 -9 4 -5 5
3 12 0 15 -6 2 -7 7 -10 11 -7 3 3 -8 18 -24 34 -17 16 -30 24 -30 18z"/>
<path d="M3959 3298 c4 -13 12 -23 17 -23 5 0 15 -4 22 -8 16 -11 15 1 -2 19
-11 11 -16 11 -19 1 -3 -7 -6 -5 -6 5 -1 9 -5 20 -11 23 -6 4 -7 -2 -1 -17z"/>
<path d="M2180 3130 c-12 -7 -10 -9 7 -7 12 0 19 5 17 9 -6 10 -6 10 -24 -2z"/>
<path d="M6346 3082 c-3 -5 1 -9 9 -9 8 0 12 4 9 9 -3 4 -7 8 -9 8 -2 0 -6 -4
-9 -8z"/>
<path d="M4910 3049 c0 -5 5 -7 10 -4 6 3 10 8 10 11 0 2 -4 4 -10 4 -5 0 -10
-5 -10 -11z"/>
<path d="M6335 3050 c-3 -5 -1 -10 4 -10 6 0 11 5 11 10 0 6 -2 10 -4 10 -3 0
-8 -4 -11 -10z"/>
<path d="M4756 2982 c-3 -5 1 -9 9 -9 8 0 12 4 9 9 -3 4 -7 8 -9 8 -2 0 -6 -4
-9 -8z"/>
<path d="M5200 2910 c0 -5 5 -10 11 -10 5 0 7 5 4 10 -3 6 -8 10 -11 10 -2 0
-4 -4 -4 -10z"/>
<path d="M4795 2890 c-3 -6 1 -7 9 -4 18 7 21 14 7 14 -6 0 -13 -4 -16 -10z"/>
<path d="M2940 2846 c0 -2 8 -10 18 -17 15 -13 16 -12 3 4 -13 16 -21 21 -21
13z"/>
<path d="M6233 2815 c0 -8 4 -12 9 -9 5 3 6 10 3 15 -9 13 -12 11 -12 -6z"/>
<path d="M5166 2764 c-8 -22 -4 -25 11 -9 7 8 9 16 4 19 -5 3 -12 -1 -15 -10z"/>
<path d="M2075 2762 c-3 -3 -5 -10 -5 -16 0 -6 5 -4 11 4 9 13 10 13 6 0 -2
-8 -12 -14 -21 -14 -9 1 -16 -2 -16 -7 0 -5 8 -9 18 -9 14 0 15 -2 2 -10 -13
-9 -13 -10 1 -10 9 0 15 -9 15 -24 0 -14 -4 -22 -8 -20 -5 3 -6 9 -3 14 3 5 1
11 -4 15 -6 3 -8 -4 -6 -16 3 -13 10 -26 17 -31 10 -6 9 -8 -2 -8 -9 0 -11 -3
-5 -8 17 -12 41 -47 28 -38 -8 4 -13 1 -13 -9 0 -9 -4 -14 -8 -11 -4 2 -8 -4
-8 -15 0 -18 2 -18 12 -5 14 20 28 21 21 2 -3 -7 0 -19 6 -25 9 -9 8 -10 -7
-5 -13 5 -17 4 -12 -4 4 -7 14 -12 22 -12 8 0 12 -5 9 -10 -4 -6 -11 -7 -17
-4 -7 5 -8 2 -2 -7 5 -8 9 -23 9 -34 0 -13 6 -19 18 -17 11 2 15 -2 11 -13 -5
-11 -2 -14 12 -9 17 5 17 5 2 -6 -23 -14 -12 -43 14 -37 16 4 17 3 7 -9 -6 -7
-15 -11 -20 -9 -4 3 -2 -7 6 -21 8 -15 12 -31 10 -34 -2 -4 2 -7 10 -7 11 0
12 4 4 13 -6 7 -8 17 -5 23 3 5 0 12 -6 14 -8 4 -9 6 -2 6 6 1 18 -7 25 -16
10 -11 10 -14 2 -9 -7 4 -13 3 -13 -3 0 -5 5 -13 10 -16 7 -4 8 -11 1 -18 -6
-8 -4 -16 5 -25 10 -10 14 -10 14 -1 0 7 3 9 6 6 4 -4 2 -13 -4 -20 -9 -11 -6
-16 14 -25 14 -7 22 -17 19 -22 -3 -6 -1 -10 4 -10 6 0 11 -9 11 -21 0 -11 5
-17 10 -14 6 3 10 -1 10 -9 0 -9 5 -16 11 -16 5 0 7 5 3 12 -4 7 -3 8 5 4 9
-6 9 -11 0 -22 -9 -11 -9 -14 0 -14 7 0 9 -5 5 -11 -5 -8 2 -10 23 -7 24 3 29
0 31 -16 1 -17 -1 -18 -8 -6 -8 13 -10 12 -10 -2 0 -21 11 -23 28 -6 9 9 12 7
12 -11 0 -12 4 -20 9 -17 5 3 11 -3 14 -14 3 -13 10 -18 21 -14 11 4 16 0 16
-12 0 -17 1 -17 13 0 12 16 14 15 34 -8 12 -13 19 -27 16 -30 -4 -3 5 -6 19
-6 29 0 46 -28 26 -42 -10 -7 -9 -8 2 -5 8 2 14 11 14 20 -1 14 1 14 21 1 12
-8 25 -11 29 -7 4 4 4 -1 0 -12 -7 -20 -7 -20 17 0 22 18 22 18 9 1 -14 -18
-13 -19 13 -14 21 4 25 2 17 -7 -13 -16 1 -27 19 -16 16 10 51 2 51 -11 0 -7
4 -7 13 0 8 7 18 6 31 -4 10 -7 23 -11 29 -7 6 3 7 1 3 -6 -4 -6 -12 -8 -18
-5 -6 4 -8 2 -5 -3 4 -6 18 -8 32 -6 14 3 22 10 18 16 -3 6 -1 7 6 3 6 -4 9
-11 6 -16 -3 -4 4 -10 16 -13 17 -5 18 -3 8 9 -10 12 -9 13 5 8 9 -3 16 -11
16 -16 0 -10 27 -6 67 9 16 6 16 5 4 -10 -7 -9 -18 -14 -24 -10 -5 3 -7 1 -4
-5 7 -11 32 -11 43 1 3 3 13 0 21 -8 10 -10 27 -13 56 -10 30 4 38 2 27 -5
-19 -12 -8 -13 24 0 23 8 26 7 26 -10 0 -11 4 -20 10 -20 5 0 6 7 3 17 -4 11
-3 14 5 9 7 -4 12 -2 12 6 0 10 2 10 9 0 4 -8 11 -13 15 -13 3 1 9 0 14 0 4
-1 16 -1 27 0 20 1 20 0 1 -7 -19 -8 -19 -9 2 -14 21 -6 27 2 23 26 -1 5 5 4
13 -4 17 -13 22 -25 8 -16 -5 3 -9 -1 -9 -9 0 -10 4 -12 12 -5 7 5 16 6 20 2
5 -4 5 -1 1 5 -5 10 -1 11 17 4 18 -7 28 -5 41 7 9 9 16 11 16 5 0 -6 -6 -14
-12 -17 -7 -2 11 -3 40 -1 29 2 52 -1 52 -6 0 -6 4 -7 10 -4 6 3 7 -1 4 -9 -3
-9 -2 -16 4 -16 6 0 13 6 15 13 4 9 6 9 6 0 1 -7 6 -13 12 -13 5 0 7 6 3 13
-5 8 -2 8 9 -2 19 -15 23 -26 5 -15 -7 4 -8 3 -4 -5 6 -9 11 -9 22 0 7 6 11
16 7 22 -3 6 -1 7 5 3 6 -4 9 -13 6 -21 -4 -9 0 -12 13 -9 13 4 33 -7 58 -29
37 -33 40 -34 62 -20 13 9 23 11 23 5 0 -6 -3 -12 -7 -15 -5 -2 -3 -3 3 -1 6
1 17 -3 24 -9 9 -9 11 -9 7 -1 -4 7 -1 14 7 17 20 8 28 -4 15 -20 -8 -9 -8
-13 -1 -13 6 0 14 5 17 11 5 6 12 4 20 -8 7 -10 11 -21 9 -25 -5 -8 17 -5 33
5 9 6 11 3 6 -10 -5 -15 -3 -16 7 -6 10 9 17 10 27 2 10 -9 13 -8 13 2 0 11 2
11 10 -1 5 -8 10 -19 10 -25 0 -5 -5 -3 -10 5 -5 8 -10 11 -10 6 0 -5 -6 -5
-13 0 -7 5 -5 1 5 -8 10 -9 29 -15 41 -12 18 3 23 -1 24 -19 2 -18 0 -19 -8
-7 -9 13 -10 13 -6 0 2 -8 12 -14 22 -12 10 2 14 -1 10 -7 -3 -6 1 -11 9 -11
9 0 16 -5 16 -11 0 -6 7 -9 14 -6 11 4 13 1 9 -11 -6 -15 -5 -15 10 -3 16 13
17 12 7 -13 -13 -35 -13 -45 1 -26 8 11 12 12 16 2 2 -6 10 -9 16 -5 7 4 7 1
-1 -9 -11 -13 -11 -18 0 -24 21 -14 35 -13 35 2 0 11 -4 11 -16 2 -11 -8 -10
-5 2 8 15 16 19 17 27 4 5 -8 6 -18 3 -24 -4 -5 -1 -6 6 -2 7 5 10 10 7 14 -3
3 2 10 11 17 13 9 13 14 3 20 -9 5 -11 4 -6 -3 4 -7 3 -12 -3 -12 -20 0 -20
17 0 38 21 23 13 31 -11 10 -12 -11 -12 -10 -3 2 7 9 10 28 9 43 -2 15 1 27 7
27 6 0 2 10 -9 22 -10 12 -13 18 -6 14 6 -4 12 -3 12 3 0 5 8 12 18 14 15 4
15 5 1 6 -21 1 -30 24 -17 42 7 11 8 9 3 -6 -5 -16 -4 -18 6 -7 10 9 10 15 1
24 -16 16 -16 41 1 32 6 -4 9 -4 5 1 -4 4 -2 15 5 23 10 13 9 14 -3 7 -8 -4
-24 -15 -35 -24 -19 -15 -19 -15 -5 4 8 11 21 25 29 31 11 9 12 12 1 19 -9 6
-11 4 -5 -6 5 -8 5 -11 0 -7 -4 4 -9 24 -11 44 -2 20 -7 41 -12 48 -5 6 -8 19
-7 29 2 9 -1 15 -6 11 -5 -3 -7 -10 -4 -15 10 -15 -2 -10 -16 8 -8 9 -9 14 -3
10 12 -7 29 21 19 31 -3 3 -5 0 -5 -6 0 -7 -4 -12 -10 -12 -5 0 -10 5 -10 11
0 15 -26 39 -35 31 -4 -4 -6 -2 -5 3 1 6 1 12 0 15 -8 22 -7 39 3 33 7 -4 6 1
-2 10 -14 18 -36 24 -26 7 3 -5 1 -10 -4 -10 -15 0 -14 13 2 29 10 11 10 13 0
7 -7 -4 -13 -2 -13 4 0 6 -4 9 -9 6 -5 -3 -12 1 -15 10 -3 8 -10 12 -16 9 -6
-4 -7 1 -3 11 4 12 3 15 -5 10 -7 -4 -12 -2 -12 4 0 6 -4 9 -9 5 -5 -3 -13 0
-17 6 -4 7 -3 9 4 5 6 -3 13 -3 16 2 3 5 -1 9 -9 10 -8 1 -22 3 -30 4 -8 1
-15 5 -15 9 0 4 -9 6 -20 4 -12 -2 -18 0 -14 6 3 6 -3 13 -15 16 -12 3 -21 9
-21 15 0 5 8 4 19 -2 11 -5 22 -6 25 -2 5 8 -8 12 -47 13 -9 0 -15 4 -12 10 4
5 2 9 -4 9 -5 0 -12 -6 -14 -12 -4 -10 -6 -10 -6 0 -1 7 -6 10 -11 7 -6 -3
-13 0 -16 9 -3 8 -12 12 -20 9 -8 -3 -11 -10 -7 -17 3 -6 2 -7 -2 -3 -12 10
-15 38 -4 32 5 -4 6 2 2 11 -4 11 -8 13 -11 6 -2 -7 -13 -17 -25 -24 -21 -11
-22 -10 -4 9 17 19 17 21 0 34 -16 13 -17 12 -5 -2 10 -14 10 -18 -3 -22 -8
-4 -14 -1 -12 6 1 7 -9 11 -25 10 -16 -1 -28 2 -28 7 0 5 -9 12 -21 15 -11 4
-18 9 -15 12 3 3 18 -2 33 -12 27 -17 27 -17 11 0 -15 16 -92 30 -83 15 2 -3
-7 -6 -21 -6 -14 0 -23 5 -20 11 2 7 -9 10 -31 8 -30 -2 -33 0 -22 13 10 12
14 12 21 2 8 -10 9 -10 6 1 -2 8 -14 15 -26 16 -11 1 -19 -2 -17 -5 3 -4 -8
-5 -23 -3 -15 2 -32 5 -39 5 -7 1 -10 5 -7 10 8 12 -16 39 -27 32 -14 -8 0
-25 14 -18 7 4 8 3 4 -1 -10 -12 -38 -15 -31 -4 3 5 0 9 -6 9 -6 0 -9 4 -5 9
3 5 1 12 -4 15 -5 4 -13 1 -17 -5 -5 -8 -3 -9 7 -4 8 5 11 4 6 0 -4 -5 -18
-10 -30 -12 -18 -2 -19 -1 -7 7 11 8 4 10 -29 8 -36 -2 -46 1 -52 17 -7 19 -8
19 -8 -2 -1 -13 -5 -23 -10 -23 -5 0 -8 11 -6 25 2 20 0 23 -11 14 -9 -7 -14
-8 -14 -1 0 12 -18 11 -39 -2 -10 -6 -12 -5 -7 2 4 7 1 12 -9 12 -10 0 -13 5
-9 12 5 7 3 8 -6 3 -10 -6 -12 -4 -6 10 5 15 4 16 -9 5 -14 -12 -14 -15 2 -34
18 -21 18 -21 -3 -3 -11 9 -24 14 -29 10 -4 -5 -6 -3 -2 2 3 6 2 17 -4 25 -7
13 -9 12 -9 -2 0 -9 -4 -20 -10 -23 -6 -4 -7 1 -3 11 5 13 3 15 -8 9 -11 -7
-11 -5 1 10 14 17 14 18 -7 7 -28 -15 -33 -15 -29 1 1 6 1 9 -1 5 -3 -5 -11
-8 -19 -8 -9 0 -12 -5 -8 -12 4 -7 -2 -5 -14 5 -11 11 -26 16 -32 12 -6 -3
-10 -3 -9 2 3 19 -2 33 -12 33 -5 0 -8 -4 -4 -9 3 -5 0 -13 -6 -17 -7 -4 -9
-3 -5 4 3 6 2 13 -4 17 -6 4 -7 11 -4 17 4 7 2 8 -4 4 -7 -4 -12 -14 -12 -23
0 -15 -2 -15 -18 0 -15 13 -21 14 -32 4 -12 -10 -12 -9 -1 6 11 14 16 15 29 5
13 -12 14 -10 3 11 -7 13 -16 20 -20 15 -3 -5 -13 -15 -22 -21 -13 -10 -16
-10 -16 2 0 8 4 12 9 9 4 -3 8 0 8 6 0 7 -7 9 -15 6 -8 -3 -23 -9 -32 -12 -15
-5 -16 -4 -3 5 12 8 7 11 -23 11 -26 0 -36 4 -31 12 5 7 3 8 -7 2 -16 -10 -44
-15 -35 -7 3 3 -2 12 -10 21 -14 13 -17 13 -25 1 -5 -8 -9 -9 -9 -4 0 6 5 16
10 21 7 7 6 11 -5 11 -8 0 -15 -7 -15 -16 -1 -9 -7 -2 -15 14 -7 17 -14 26
-14 21 -1 -4 -12 -1 -26 8 -30 20 -32 20 -38 -1 -4 -17 -5 -17 -6 0 0 9 -7 17
-13 17 -9 0 -8 4 2 11 12 9 12 10 -4 5 -10 -4 -25 -1 -33 6 -8 6 -13 7 -12 2
4 -23 -2 -26 -17 -8 -8 10 -12 12 -8 4 4 -8 4 -12 -1 -8 -4 4 -15 2 -23 -5
-13 -11 -14 -9 -1 10 10 17 11 25 2 34 -8 8 -13 7 -18 -2 -6 -8 -4 -10 5 -4 9
5 11 4 6 -4 -12 -18 -27 -2 -21 22 2 12 2 16 -1 10 -3 -7 -12 -13 -20 -13 -9
0 -13 4 -10 8 2 4 -7 9 -21 10 -14 1 -34 12 -44 24 -11 11 -19 17 -19 12 0 -6
6 -16 13 -23 10 -10 8 -11 -6 -5 -13 5 -17 14 -14 31 3 19 2 21 -9 12 -10 -8
-14 -8 -14 0 0 6 -5 11 -11 11 -5 0 -7 -5 -3 -11 4 -8 0 -8 -15 0 -11 7 -21
17 -21 24 0 7 4 6 10 -3 8 -12 11 -13 22 -2 7 8 9 13 3 12 -5 -2 -12 -1 -15 0
-12 5 -60 6 -65 2z m35 -32 c0 -5 -5 -10 -11 -10 -5 0 -7 5 -4 10 3 6 8 10 11
10 2 0 4 -4 4 -10z m160 -70 c0 -5 -5 -10 -11 -10 -5 0 -7 5 -4 10 3 6 8 10
11 10 2 0 4 -4 4 -10z m214 -86 c3 -8 2 -12 -4 -9 -6 3 -10 10 -10 16 0 14 7
11 14 -7z m-349 -123 c3 -5 2 -12 -3 -15 -5 -3 -9 1 -9 9 0 17 3 19 12 6z
m329 -440 c-8 -8 -44 -8 -44 1 0 4 11 7 25 6 13 -1 22 -4 19 -7z m71 -41 c3
-6 -1 -7 -9 -4 -18 7 -21 14 -7 14 6 0 13 -4 16 -10z m510 -188 c-3 -3 -11 0
-18 7 -9 10 -8 11 6 5 10 -3 15 -9 12 -12z m629 -124 c-5 -8 -2 -9 9 -5 17 6
23 -4 10 -16 -9 -9 -34 13 -27 24 3 5 7 9 10 9 3 0 2 -5 -2 -12z m176 -74 c0
-3 -7 -1 -15 6 -8 7 -15 17 -15 22 0 5 7 3 15 -6 8 -8 15 -18 15 -22z"/>
<path d="M3230 2738 c0 -4 4 -8 9 -8 6 0 12 4 15 8 3 5 -1 9 -9 9 -8 0 -15 -4
-15 -9z"/>
<path d="M5153 2713 c0 -9 4 -10 14 -2 7 6 13 12 13 14 0 1 -6 2 -13 2 -8 0
-14 -6 -14 -14z"/>
<path d="M4520 2651 c0 -10 19 -25 25 -20 1 2 -3 10 -11 17 -8 7 -14 8 -14 3z"/>
<path d="M2073 2595 c0 -8 4 -12 9 -9 5 3 6 10 3 15 -9 13 -12 11 -12 -6z"/>
<path d="M3700 2591 c0 -6 4 -13 10 -16 6 -3 7 1 4 9 -7 18 -14 21 -14 7z"/>
<path d="M2605 2530 c3 -5 11 -10 16 -10 6 0 7 5 4 10 -3 6 -11 10 -16 10 -6
0 -7 -4 -4 -10z"/>
<path d="M3875 2510 c-3 -5 -1 -10 4 -10 6 0 11 5 11 10 0 6 -2 10 -4 10 -3 0
-8 -4 -11 -10z"/>
<path d="M2871 2447 c2 -1 11 -8 20 -15 13 -10 19 -9 30 5 13 16 12 17 -3 5
-11 -9 -18 -10 -23 -2 -3 5 -11 10 -17 10 -6 0 -9 -1 -7 -3z"/>
<path d="M4175 2350 c3 -5 8 -10 11 -10 2 0 4 5 4 10 0 6 -5 10 -11 10 -5 0
-7 -4 -4 -10z"/>
<path d="M3380 2312 c9 -19 30 -23 30 -5 0 4 -3 3 -7 0 -3 -4 -12 1 -20 11
-13 15 -13 15 -3 -6z"/>
<path d="M5926 2261 c-3 -5 1 -11 9 -14 9 -4 12 -1 8 9 -6 16 -10 17 -17 5z"/>
<path d="M2237 2169 c7 -7 15 -10 18 -7 3 3 -2 9 -12 12 -14 6 -15 5 -6 -5z"/>
<path d="M5895 2171 c-3 -5 -2 -12 3 -15 5 -3 9 1 9 9 0 17 -3 19 -12 6z"/>
<path d="M3865 2110 c3 -5 8 -10 11 -10 2 0 4 5 4 10 0 6 -5 10 -11 10 -5 0
-7 -4 -4 -10z"/>
<path d="M2470 1980 c0 -5 5 -10 11 -10 5 0 7 5 4 10 -3 6 -8 10 -11 10 -2 0
-4 -4 -4 -10z"/>
<path d="M5745 1979 c-4 -6 -4 -13 -1 -16 3 -4 6 -1 6 6 0 7 5 9 12 5 7 -4 8
-3 4 4 -9 15 -13 15 -21 1z"/>
<path d="M4055 1930 c3 -5 8 -10 11 -10 2 0 4 5 4 10 0 6 -5 10 -11 10 -5 0
-7 -4 -4 -10z"/>
<path d="M5686 1911 c-3 -5 0 -11 7 -14 8 -3 14 1 14 9 0 16 -13 19 -21 5z"/>
<path d="M2590 1889 c0 -5 5 -7 10 -4 6 3 10 8 10 11 0 2 -4 4 -10 4 -5 0 -10
-5 -10 -11z"/>
<path d="M2776 1837 c3 -10 9 -15 12 -12 3 3 0 11 -7 18 -10 9 -11 8 -5 -6z"/>
<path d="M4714 1739 c-29 -32 -29 -32 -2 -15 14 10 29 24 32 32 8 20 3 18 -30
-17z"/>
<path d="M3180 1751 c0 -3 11 -11 24 -17 22 -10 23 -10 14 6 -10 16 -38 24
-38 11z"/>
<path d="M3416 1721 c9 -9 34 -9 34 -1 0 5 -9 8 -20 7 -10 -1 -17 -3 -14 -6z"/>
<path d="M3375 1710 c3 -5 8 -10 11 -10 2 0 4 5 4 10 0 6 -5 10 -11 10 -5 0
-7 -4 -4 -10z"/>
<path d="M3590 1670 c0 -6 7 -10 15 -10 8 0 15 2 15 4 0 2 -7 6 -15 10 -8 3
-15 1 -15 -4z"/>
<path d="M4660 1655 c-7 -8 -9 -15 -6 -15 4 0 14 7 22 15 9 8 11 15 6 15 -5 0
-15 -7 -22 -15z"/>
<path d="M4155 1549 c-3 -4 2 -6 10 -5 21 3 28 13 10 13 -9 0 -18 -4 -20 -8z"/>
<path d="M5377 1543 c-4 -3 -7 -11 -7 -17 0 -6 5 -5 12 2 6 6 9 14 7 17 -3 3
-9 2 -12 -2z"/>
<path d="M4536 1503 c-6 -14 -5 -15 5 -6 7 7 10 15 7 18 -3 3 -9 -2 -12 -12z"/>
<path d="M5312 1468 c-7 -7 -12 -16 -12 -21 0 -5 7 -1 16 8 9 9 14 18 12 20
-2 3 -10 -1 -16 -7z"/>
<path d="M2890 1327 c0 -5 -7 -6 -16 -3 -9 3 -12 2 -9 -5 4 -6 13 -8 20 -5 8
3 11 -2 8 -15 -3 -10 -10 -19 -15 -19 -5 0 -6 5 -3 10 3 6 1 10 -4 10 -6 0
-11 -5 -11 -11 0 -5 -4 -8 -8 -5 -5 3 -9 -1 -9 -9 0 -8 4 -12 9 -9 4 3 11 -1
14 -10 3 -8 14 -13 25 -11 10 2 19 -1 19 -7 0 -6 3 -8 6 -5 4 4 3 12 -3 19 -8
11 -10 33 -3 41 9 10 4 44 -7 44 -7 0 -13 -5 -13 -10z m7 -64 c0 -8 -6 -9 -19
-2 -10 5 -18 11 -18 12 0 2 8 3 18 3 10 0 19 -6 19 -13z"/>
<path d="M5130 1295 c0 -5 5 -17 10 -25 5 -8 10 -10 10 -5 0 6 -5 17 -10 25
-5 8 -10 11 -10 5z"/>
<path d="M4235 1130 c3 -5 8 -10 11 -10 2 0 4 5 4 10 0 6 -5 10 -11 10 -5 0
-7 -4 -4 -10z"/>
<path d="M2763 1103 c4 -6 3 -13 -2 -15 -5 -1 -3 -9 5 -16 12 -11 13 -9 11 7
-2 11 -7 24 -12 28 -4 5 -5 3 -2 -4z"/>
<path d="M4839 1023 c-12 -16 -12 -17 2 -6 9 7 20 9 24 5 5 -4 5 -1 1 6 -9 16
-11 15 -27 -5z"/>
<path d="M2732 1011 c4 -13 18 -16 19 -4 0 4 -5 9 -11 12 -7 2 -11 -2 -8 -8z"/>
<path d="M4090 989 c0 -5 5 -7 10 -4 6 3 10 8 10 11 0 2 -4 4 -10 4 -5 0 -10
-5 -10 -11z"/>
<path d="M4706 921 c-4 -5 -2 -12 3 -15 5 -4 12 -2 15 3 4 5 2 12 -3 15 -5 4
-12 2 -15 -3z"/>
<path d="M2675 810 c-3 -5 -1 -10 4 -10 6 0 11 5 11 10 0 6 -2 10 -4 10 -3 0
-8 -4 -11 -10z"/>
<path d="M2683 632 c10 -10 14 -22 10 -27 -5 -4 -2 -5 5 -1 11 6 10 12 -4 27
-9 10 -19 19 -22 19 -3 0 2 -8 11 -18z"/>
<path d="M3330 536 c4 -4 16 -4 26 2 16 9 14 10 -8 9 -15 -1 -23 -6 -18 -11z"/>
<path d="M2713 525 c0 -8 4 -12 9 -9 5 3 6 10 3 15 -9 13 -12 11 -12 -6z"/>
<path d="M4010 430 c0 -5 5 -10 11 -10 5 0 7 5 4 10 -3 6 -8 10 -11 10 -2 0
-4 -4 -4 -10z"/>
<path d="M3057 226 c-4 -10 -1 -13 8 -9 8 3 12 9 9 14 -7 12 -11 11 -17 -5z"/>
</g>
</svg>
